<?xml version="1.0" encoding="utf-8"?>
<!-- Generator: Adobe Illustrator 16.0.0, SVG Export Plug-In . SVG Version: 6.00 Build 0)  -->
<!DOCTYPE svg PUBLIC "-//W3C//DTD SVG 1.1//EN" "http://www.w3.org/Graphics/SVG/1.1/DTD/svg11.dtd">
<svg version="1.1" id="Layer_1" xmlns="http://www.w3.org/2000/svg" xmlns:xlink="http://www.w3.org/1999/xlink" x="0px" y="0px"
	 width="66.525px" height="67.524px" viewBox="0 0 66.525 67.524" enable-background="new 0 0 66.525 67.524" xml:space="preserve">
<path fill="#FFFFFF" d="M56.525,58.524H2c-0.553,0-1-0.448-1-1V7c0-0.553,0.447-1,1-1h54.525c0.551,0,1,0.447,1,1v50.524
	C57.525,58.076,57.076,58.524,56.525,58.524"/>
<path fill="none" stroke="#5A595A" stroke-width="2" stroke-miterlimit="10" d="M56.525,58.524H2c-0.553,0-1-0.448-1-1V7
	c0-0.553,0.447-1,1-1h54.525c0.551,0,1,0.447,1,1v50.524C57.525,58.076,57.076,58.524,56.525,58.524z"/>
<line fill="none" stroke="#5A595A" stroke-width="2" stroke-miterlimit="10" x1="1" y1="18.808" x2="57.523" y2="18.808"/>
<circle fill="none" stroke="#5A595A" stroke-width="2" stroke-miterlimit="10" cx="11.632" cy="31.762" r="3.125"/>
<circle fill="none" stroke="#5A595A" stroke-width="2" stroke-miterlimit="10" cx="29.262" cy="31.762" r="3.125"/>
<circle fill="none" stroke="#5A595A" stroke-width="2" stroke-miterlimit="10" cx="11.632" cy="45.762" r="3.125"/>
<circle fill="none" stroke="#5A595A" stroke-width="2" stroke-miterlimit="10" cx="29.262" cy="45.762" r="3.125"/>
<circle fill="none" stroke="#5A595A" stroke-width="2" stroke-miterlimit="10" cx="46.892" cy="45.762" r="3.125"/>
<line fill="none" stroke="#801542" stroke-width="2" stroke-miterlimit="10" x1="49.382" y1="1" x2="53.525" y2="1"/>
<line fill="none" stroke="#801542" stroke-width="2" stroke-miterlimit="10" x1="15.882" y1="1" x2="43.07" y2="1"/>
<line fill="none" stroke="#801542" stroke-width="2" stroke-miterlimit="10" x1="5" y1="1" x2="8.882" y2="1"/>
<line fill="none" stroke="#5A595A" stroke-width="2" stroke-miterlimit="10" x1="12.34" y1="7.999" x2="12.34" y2="0.999"/>
<line fill="none" stroke="#5A595A" stroke-width="2" stroke-miterlimit="10" x1="46.185" y1="7.999" x2="46.185" y2="0.999"/>
<path fill="none" stroke="#8A8A8E" stroke-width="2" stroke-linecap="round" stroke-linejoin="round" stroke-miterlimit="10" stroke-dasharray="0.1,4" d="
	M65.525,12v45.524c0,4.963-4.037,9-9,9H6"/>
<path fill="none" stroke="#8A8A8E" stroke-width="2" stroke-linecap="round" stroke-linejoin="round" stroke-miterlimit="10" stroke-dasharray="0.1,4" d="
	M61.525,10v47.524c0,2.757-2.244,5-5,5H4"/>
<path fill="#FFFFFF" d="M51.517,31.762c0,2.554-2.07,4.625-4.625,4.625c-2.553,0-4.625-2.071-4.625-4.625s2.072-4.625,4.625-4.625
	C49.447,27.137,51.517,29.208,51.517,31.762"/>
<circle fill="none" stroke="#801542" stroke-width="2" stroke-miterlimit="10" cx="46.892" cy="31.762" r="4.625"/>
<path fill="#FFFFFF" d="M48.46,31.762c0,0.866-0.703,1.567-1.566,1.567c-0.867,0-1.568-0.701-1.568-1.567s0.701-1.567,1.568-1.567
	C47.757,30.194,48.46,30.896,48.46,31.762"/>
<circle fill="none" stroke="#801542" stroke-width="2" stroke-miterlimit="10" cx="46.893" cy="31.762" r="1.567"/>
</svg>
