<?xml version="1.0" encoding="utf-8"?>
<!-- Generator: Adobe Illustrator 16.0.0, SVG Export Plug-In . SVG Version: 6.00 Build 0)  -->
<!DOCTYPE svg PUBLIC "-//W3C//DTD SVG 1.1//EN" "http://www.w3.org/Graphics/SVG/1.1/DTD/svg11.dtd">
<svg version="1.1" id="Layer_1" xmlns="http://www.w3.org/2000/svg" xmlns:xlink="http://www.w3.org/1999/xlink" x="0px" y="0px"
	 width="80.678px" height="62.117px" viewBox="0 0 80.678 62.117" enable-background="new 0 0 80.678 62.117" xml:space="preserve">
<path fill="#FFFFFF" d="M1.223,6.908l2.883,39.204c0.048,0.648,0.613,1.137,1.263,1.088l57.202-4.207
	c0.649-0.047,1.137-0.613,1.09-1.262L60.775,2.528c-0.047-0.65-0.612-1.137-1.262-1.089L2.312,5.646
	C1.663,5.694,1.174,6.259,1.223,6.908"/>
<path fill="none" stroke="#5A595A" stroke-width="2" stroke-miterlimit="10" d="M1.223,6.908l2.883,39.204
	c0.048,0.648,0.613,1.137,1.263,1.088l57.202-4.207c0.649-0.047,1.137-0.613,1.09-1.262L60.775,2.528
	c-0.047-0.65-0.612-1.137-1.262-1.089L2.312,5.646C1.663,5.694,1.174,6.259,1.223,6.908z"/>
<path fill="#FFFFFF" d="M11.384,12.265v39.31c0,0.65,0.528,1.178,1.179,1.178h57.356c0.651,0,1.179-0.527,1.179-1.178v-39.31
	c0-0.651-0.527-1.179-1.179-1.179H12.562C11.912,11.086,11.384,11.614,11.384,12.265"/>
<rect x="11.383" y="18.357" fill="#FFFFFF" width="59.714" height="8.113"/>
<rect x="11.383" y="18.357" fill="none" stroke="#801542" stroke-width="2" stroke-miterlimit="10" width="59.714" height="8.113"/>
<path fill="none" stroke="#8A8A8E" stroke-width="2" stroke-linecap="round" stroke-linejoin="round" stroke-miterlimit="10" stroke-dasharray="0.1,4" d="
	M79.898,23.265v28.307c0,5.504-4.477,9.98-9.979,9.98H19.163"/>
<path fill="none" stroke="#8A8A8E" stroke-width="2" stroke-linecap="round" stroke-linejoin="round" stroke-miterlimit="10" stroke-dasharray="0.1,4" d="
	M75.498,18.865v32.707c0,3.076-2.502,5.58-5.578,5.58H15.862"/>
<path fill="none" stroke="#5A595A" stroke-width="2" stroke-miterlimit="10" d="M11.384,12.265v39.31
	c0,0.65,0.528,1.178,1.179,1.178h57.356c0.651,0,1.179-0.527,1.179-1.178v-39.31c0-0.651-0.527-1.179-1.179-1.179H12.562
	C11.912,11.086,11.384,11.614,11.384,12.265z"/>
<line fill="none" stroke="#5A595A" stroke-width="2" stroke-miterlimit="10" x1="18.334" y1="41.535" x2="38.303" y2="41.535"/>
<line fill="none" stroke="#5A595A" stroke-width="2" stroke-miterlimit="10" x1="18.334" y1="47.051" x2="38.303" y2="47.051"/>
<path fill="#FFFFFF" d="M64.631,44.008c0,1.891-1.533,3.424-3.423,3.424c-1.891,0-3.424-1.533-3.424-3.424
	c0-1.889,1.533-3.422,3.424-3.422C63.098,40.586,64.631,42.119,64.631,44.008"/>
<circle fill="none" stroke="#801542" stroke-width="2" stroke-miterlimit="10" cx="61.208" cy="44.008" r="3.423"/>
<path fill="#FFFFFF" d="M58.916,44.008c0,1.891-1.533,3.424-3.423,3.424c-1.891,0-3.423-1.533-3.423-3.424
	c0-1.889,1.532-3.422,3.423-3.422C57.382,40.586,58.916,42.119,58.916,44.008"/>
<circle fill="none" stroke="#5A595A" stroke-width="2" stroke-miterlimit="10" cx="55.493" cy="44.008" r="3.423"/>
</svg>
