<?xml version="1.0" encoding="utf-8"?>
<!-- Generator: Adobe Illustrator 16.0.0, SVG Export Plug-In . SVG Version: 6.00 Build 0)  -->
<!DOCTYPE svg PUBLIC "-//W3C//DTD SVG 1.1//EN" "http://www.w3.org/Graphics/SVG/1.1/DTD/svg11.dtd">
<svg version="1.1" id="Layer_1" xmlns="http://www.w3.org/2000/svg" xmlns:xlink="http://www.w3.org/1999/xlink" x="0px" y="0px"
	 width="88.274px" height="64.901px" viewBox="0 0 88.274 64.901" enable-background="new 0 0 88.274 64.901" xml:space="preserve">
<path fill="#FFFFFF" d="M16.274,2.166C7.839,2.166,1,8.227,1,15.703c0,4.222,2.183,7.992,5.603,10.475l0.47,3.016
	c0.007,0.373,0.415,0.6,0.733,0.406l2.969-1.269c1.707,0.584,3.56,0.907,5.5,0.907c8.436,0,15.273-6.06,15.273-13.535
	C31.548,8.227,24.71,2.166,16.274,2.166"/>
<path fill="none" stroke="#801542" stroke-width="2" stroke-miterlimit="10" d="M16.274,2.166C7.839,2.166,1,8.227,1,15.703
	c0,4.222,2.183,7.992,5.603,10.475l0.47,3.016c0.007,0.373,0.415,0.6,0.733,0.406l2.969-1.269c1.707,0.584,3.56,0.907,5.5,0.907
	c8.436,0,15.273-6.06,15.273-13.535C31.548,8.227,24.71,2.166,16.274,2.166z"/>
<path fill="none" stroke="#8A8A8E" stroke-width="2" stroke-linecap="round" stroke-linejoin="round" stroke-miterlimit="10" stroke-dasharray="0.1,4" d="
	M74.291,58.489c-1.629,3.207-4.981,5.412-8.729,5.412h-0.007c-1.448,0-2.903-0.332-4.216-0.961l-2.662-1.139
	c-3.334,0.832-6.775,1.252-10.255,1.252c-5.237,0-10.301-0.932-15.001-2.732"/>
<path fill="none" stroke="#8A8A8E" stroke-width="2" stroke-linecap="round" stroke-linejoin="round" stroke-miterlimit="10" stroke-dasharray="0.1,4" d="
	M84.538,14.548c1.803,4.134,2.736,8.56,2.736,13.07c0,9.546-4.221,18.679-11.644,25.31l-0.358,2.297
	c-0.132,1.162-0.473,2.262-0.982,3.264"/>
<path fill="none" stroke="#8A8A8E" stroke-width="2" stroke-linecap="round" stroke-linejoin="round" stroke-miterlimit="10" stroke-dasharray="0.1,4" d="
	M77.502,11.006c3.396,4.806,5.364,10.506,5.364,16.612c0,8.843-4.109,17.136-11.34,23.017l-0.627,4.016
	c-0.266,2.705-2.575,4.842-5.338,4.842c-0.83,0-1.647-0.193-2.389-0.564l-4.167-1.783c-3.419,0.996-6.972,1.5-10.584,1.5
	c-8.055,0-15.474-2.504-21.346-6.693"/>
<path fill="#FFFFFF" d="M48.422,1C65.01,1,78.457,12.917,78.457,27.618c0,8.304-4.292,15.716-11.017,20.599l-0.925,5.93
	c-0.013,0.734-0.815,1.178-1.444,0.799l-5.834-2.496c-3.356,1.15-7.002,1.785-10.815,1.785c-16.588,0-30.035-11.916-30.035-26.617
	C18.387,12.917,31.834,1,48.422,1"/>
<path fill="none" stroke="#5A595A" stroke-width="2" stroke-miterlimit="10" d="M48.422,1C65.01,1,78.457,12.917,78.457,27.618
	c0,8.304-4.292,15.716-11.017,20.599l-0.925,5.93c-0.013,0.734-0.815,1.178-1.444,0.799l-5.834-2.496
	c-3.356,1.15-7.002,1.785-10.815,1.785c-16.588,0-30.035-11.916-30.035-26.617C18.387,12.917,31.834,1,48.422,1z"/>
<line fill="none" stroke="#801542" stroke-width="2" stroke-miterlimit="10" x1="61.36" y1="20.003" x2="34.093" y2="20.003"/>
<line fill="none" stroke="#801542" stroke-width="2" stroke-miterlimit="10" x1="61.36" y1="28.119" x2="34.093" y2="28.119"/>
<line fill="none" stroke="#801542" stroke-width="2" stroke-miterlimit="10" x1="61.36" y1="36.081" x2="34.093" y2="36.081"/>
</svg>
