<svg version="1.1" xmlns="http://www.w3.org/2000/svg" viewBox="0 0 44 46">
	<path opacity="0.3" d="M22,6c9.925,0,18,8.075,18,18s-8.075,18-18,18S4,33.925,4,24S12.075,6,22,6z M22,2C9.85,2,0,11.85,0,24
			c0,12.15,9.85,22,22,22c12.15,0,22-9.85,22-22C44,11.85,34.15,2,22,2L22,2z"/>
	<path d="M22,4c9.925,0,18,8.075,18,18s-8.075,18-18,18S4,31.925,4,22S12.075,4,22,4 M22,0C9.85,0,0,9.85,0,22
			c0,12.15,9.85,22,22,22c12.15,0,22-9.85,22-22C44,9.85,34.15,0,22,0L22,0z"/>
	<path opacity="0.3" d="M30,34c-0.512,0-1.023-0.195-1.414-0.586L20,24.829V16c0-1.104,0.896-2,2-2c1.104,0,2,0.896,2,2v7.171
				l7.414,7.415c0.781,0.781,0.781,2.047,0,2.828C31.023,33.805,30.512,34,30,34z"/>
	<path d="M30,32c-0.512,0-1.023-0.195-1.414-0.586L20,22.829V14c0-1.104,0.896-2,2-2c1.104,0,2,0.896,2,2v7.171
			l7.414,7.415c0.781,0.781,0.781,2.047,0,2.828C31.023,31.805,30.512,32,30,32z"/>
</svg>
