<?xml version="1.0" encoding="utf-8"?>
<!-- Generator: Adobe Illustrator 16.0.0, SVG Export Plug-In . SVG Version: 6.00 Build 0)  -->
<!DOCTYPE svg PUBLIC "-//W3C//DTD SVG 1.1//EN" "http://www.w3.org/Graphics/SVG/1.1/DTD/svg11.dtd">
<svg version="1.1" id="Layer_1" xmlns="http://www.w3.org/2000/svg" xmlns:xlink="http://www.w3.org/1999/xlink" x="0px" y="0px"
	 width="81.721px" height="81.72px" viewBox="0 0 81.721 81.72" enable-background="new 0 0 81.721 81.72" xml:space="preserve">
<rect x="1" y="39.236" fill="#FFFFFF" width="33.484" height="33.484"/>
<rect x="1" y="39.236" fill="none" stroke="#5A595A" stroke-width="2" stroke-linecap="round" stroke-linejoin="round" stroke-miterlimit="10" width="33.484" height="33.484"/>
<rect x="39.237" y="39.236" fill="#FFFFFF" width="33.484" height="33.484"/>
<rect x="39.237" y="39.236" fill="none" stroke="#5A595A" stroke-width="2" stroke-linecap="round" stroke-linejoin="round" stroke-miterlimit="10" width="33.484" height="33.484"/>
<path fill="#FFFFFF" d="M17.742,47.404c4.735,0,8.574,3.84,8.574,8.574c0,4.736-3.839,8.574-8.574,8.574
	c-4.734,0-8.573-3.838-8.573-8.574"/>
<path fill="none" stroke="#801542" stroke-width="2" stroke-linecap="round" stroke-miterlimit="10" d="M17.742,47.404
	c4.735,0,8.574,3.84,8.574,8.574c0,4.736-3.839,8.574-8.574,8.574c-4.734,0-8.573-3.838-8.573-8.574"/>
<line fill="#FFFFFF" x1="17.742" y1="57.986" x2="17.742" y2="53.97"/>
<line fill="none" stroke="#801542" stroke-width="2" stroke-linecap="round" stroke-miterlimit="10" x1="17.742" y1="57.986" x2="17.742" y2="53.97"/>
<line fill="#FFFFFF" x1="45.657" y1="64.552" x2="66.301" y2="64.552"/>
<line fill="none" stroke="#5A595A" stroke-width="2" stroke-linecap="round" stroke-linejoin="round" stroke-miterlimit="10" x1="45.657" y1="64.552" x2="66.301" y2="64.552"/>
<polyline fill="#FFFFFF" points="45.657,58.64 52.067,53.97 55.979,55.978 59.979,56.621 66.301,50.728 "/>
<polyline fill="none" stroke="#801542" stroke-width="2" stroke-linecap="round" stroke-miterlimit="10" points="45.657,58.64 
	52.067,53.97 55.979,55.978 59.979,56.621 66.301,50.728 "/>
<rect x="1.001" y="1" fill="#FFFFFF" width="71.72" height="33.136"/>
<rect x="1.001" y="1" fill="none" stroke="#5A595A" stroke-width="2" stroke-linecap="round" stroke-linejoin="round" stroke-miterlimit="10" width="71.72" height="33.136"/>
<path fill="#FFFFFF" d="M11.963,9.316c0,1.604-1.3,2.904-2.904,2.904c-1.604,0-2.904-1.3-2.904-2.904s1.301-2.904,2.904-2.904
	C10.663,6.413,11.963,7.712,11.963,9.316"/>
<circle fill="none" stroke="#801542" stroke-width="2" stroke-linecap="round" stroke-miterlimit="10" cx="9.059" cy="9.316" r="2.904"/>
<line fill="#FFFFFF" x1="17.742" y1="9.316" x2="47.354" y2="9.316"/>
<line fill="none" stroke="#5A595A" stroke-width="2" stroke-linecap="round" stroke-linejoin="round" stroke-miterlimit="10" x1="17.742" y1="9.316" x2="47.354" y2="9.316"/>
<line fill="#FFFFFF" x1="7.154" y1="28.558" x2="66.301" y2="28.558"/>
<line fill="none" stroke="#5A595A" stroke-width="2" stroke-linecap="round" stroke-linejoin="round" stroke-miterlimit="10" x1="7.154" y1="28.558" x2="66.301" y2="28.558"/>
<line fill="#FFFFFF" x1="55.372" y1="14.55" x2="66.301" y2="14.55"/>
<line fill="none" stroke="#5A595A" stroke-width="2" stroke-linecap="round" stroke-linejoin="round" stroke-miterlimit="10" x1="55.372" y1="14.55" x2="66.301" y2="14.55"/>
<line fill="#FFFFFF" x1="55.372" y1="19.907" x2="66.301" y2="19.907"/>
<line fill="none" stroke="#5A595A" stroke-width="2" stroke-linecap="round" stroke-linejoin="round" stroke-miterlimit="10" x1="55.372" y1="19.907" x2="66.301" y2="19.907"/>
<polyline fill="#FFFFFF" points="7.42,23.863 19.82,19.193 27.387,21.201 35.126,21.844 47.354,15.95 "/>
<polyline fill="none" stroke="#801542" stroke-width="2" stroke-linecap="round" stroke-miterlimit="10" points="7.42,23.863 
	19.82,19.193 27.387,21.201 35.126,21.844 47.354,15.95 "/>
<path fill="none" stroke="#8A8A8E" stroke-width="2" stroke-linecap="round" stroke-linejoin="round" stroke-miterlimit="10" stroke-dasharray="0.1,4" d="
	M5.001,76.72h69.72c1.104,0,2-0.895,2-2V4"/>
<path fill="none" stroke="#8A8A8E" stroke-width="2" stroke-linecap="round" stroke-linejoin="round" stroke-miterlimit="10" stroke-dasharray="0.1,4" d="
	M9.001,80.72h65.72c3.312,0,6-2.686,6-6V8"/>
</svg>
