<svg version="1.1" xmlns="http://www.w3.org/2000/svg" viewBox="0 0 427 127">
<g>
	<path style="fill-rule:evenodd;clip-rule:evenodd;" d="M212.493,58.557c0.93-0.69,2.08-1.37,3.05-2.25
		c14.17-12.84,30.25-22.78,47.439-30.94c36.84-17.49,74.69-21.6,113.74-8c10.15,3.53,19.67,8.3,27.55,15.7
		c19.24,18.08,22.021,47.629,6.78,69.43c-1.48,2.109-2.64,4.449-3.94,6.68c0.431,0.32,0.87,0.63,1.301,0.95
		c1.14-1.33,2.359-2.61,3.409-4.01c10.53-14.021,16.32-29.4,15.021-47.331c-1.061-14.69-5.82-27.64-17.68-36.45
		c-8.021-5.96-17.15-10.93-26.48-14.53c-20.54-7.94-42.26-8.58-63.95-7.28c-18.399,1.1-36.08,5.51-52.58,14.08
		c-20.06,10.41-38.029,23.76-54.59,39.04c-2.54,2.35-4.19,2.86-7.1,0.53c-6.36-5.08-13.03-9.78-19.63-14.54
		c-31.5-22.75-64.95-39.21-105.46-37.56c-20.1,0.82-38.45,5.3-54.78,16.76c-18.46,12.97-26.69,31.47-24.14,53.63
		c2.39,20.88,13.6,36.3,33.19,45.26c25.74,11.771,52.4,10.67,79.23,5.86c22.83-4.09,42.26-15.78,60.35-29.58
		c11.99-9.15,23.16-19.36,35.86-30.08c13.32,9.7,27.49,19.58,41.12,30.15c5.761,4.479,13.83,8.119,18.11,14.529
		c0.34-0.319-0.45-0.8,0-1c0.04-1.3,0.24-2.52,0.59-3.67 M170.023,88.437c-24.61,16.33-51.63,27.03-81.26,29.08
		c-22.84,1.59-45.63-0.78-64.93-14.53c-18.87-13.439-30.34-44.129-4.4-66.22c15.36-13.08,33.4-19.56,52.99-22.44
		c29.35-4.32,56.08,3.85,81.31,17.89c15.82,8.8,31.12,18.55,46.63,27.89c0.81,0.49,1.45,1.23,3.26,2.8
		C192.193,71.658,181.583,80.767,170.023,88.437z"/>
	<g>
		<path d="M285.858,119.981c-0.204,0-0.408-0.022-0.612-0.067c-1.088-0.204-1.632-1.168-1.632-2.891
			c0-2.788,1.405-7.536,4.216-14.246c1.088-2.538,1.893-5.009,2.414-7.411c0.204-0.93,0.307-1.672,0.307-2.228
			c0-0.555-0.023-0.991-0.068-1.309c-0.113-0.997-0.487-1.688-1.122-2.074c-1.134-0.612-2.402-0.918-3.808-0.918
			c-1.474,0-3.026,0.362-4.658,1.088s-3.168,1.609-4.607,2.652s-2.748,2.283-3.927,3.723s-2.057,2.947-2.635,4.522
			s-0.867,2.997-0.867,4.267c0,0.521,0.045,1.02,0.136,1.496c0.362,1.563,1.043,2.731,2.04,3.502s2.176,1.156,3.536,1.156
			c1.904,0,3.689-0.839,5.355-2.517c1.666-1.677,2.499-3.456,2.499-5.338c0-1.02-0.204-1.756-0.612-2.21
			c-0.408-0.453-0.828-0.68-1.258-0.68c-0.431,0-0.862,0.062-1.292,0.187c-0.432,0.125-0.646,0.114-0.646-0.034
			c0-0.146,0.261-0.34,0.782-0.577c0.521-0.238,1.065-0.357,1.632-0.357s1.088,0.17,1.564,0.51c0.884,0.681,1.325,1.712,1.325,3.094
			c0,1.384-0.526,2.771-1.58,4.165c-1.055,1.395-2.353,2.517-3.894,3.366c-1.542,0.851-3.065,1.275-4.573,1.275
			s-2.906-0.55-4.198-1.649c-1.292-1.099-2.154-2.578-2.584-4.437c-0.113-0.544-0.171-1.122-0.171-1.734
			c0-1.428,0.352-2.98,1.055-4.658c0.702-1.677,1.717-3.235,3.043-4.675s2.759-2.641,4.301-3.604
			c1.541-0.964,3.173-1.763,4.896-2.397c1.722-0.657,3.343-0.986,4.861-0.986s2.901,0.238,4.148,0.715
			c2.198,0.951,3.298,2.97,3.298,6.052c0,2.267-0.816,5.077-2.448,8.432c-1.02,2.086-1.927,4.33-2.72,6.732
			c-1.179,3.559-1.769,6.029-1.769,7.412c0,1.042,0.352,1.563,1.055,1.563c1.405,0,3.864-1.824,7.378-5.474
			c2.47-2.562,4.408-5.372,5.813-8.433c0.906-1.948,1.36-3.739,1.36-5.371c0-0.861-0.068-1.468-0.204-1.819s-0.227-0.578-0.271-0.68
			c-0.046-0.103-0.137-0.192-0.272-0.272c-0.136-0.079-0.227-0.119-0.271-0.119c-0.318-0.09-0.646-0.164-0.986-0.221
			s-0.539-0.209-0.595-0.459c-0.058-0.249,0.062-0.396,0.356-0.442l0.646,0.068c1.042,0.295,1.949,1.031,2.72,2.21
			c0.431,0.657,0.646,1.445,0.646,2.363s-0.215,2-0.646,3.247c-1.043,2.766-2.652,5.49-4.828,8.177
			c-2.176,2.686-4.324,4.743-6.443,6.171S287.195,119.981,285.858,119.981z"/>
		<path d="M303.605,115.969c0.431,0,0.885-0.215,1.36-0.646c0.838-0.839,1.904-2.551,3.196-5.135
			c0.158-0.34,0.316-0.441,0.476-0.306c0.045,0.046,0.068,0.119,0.068,0.221c0,0.103-0.091,0.352-0.272,0.748
			c-0.182,0.397-0.346,0.754-0.493,1.071s-0.431,0.833-0.85,1.547c-0.42,0.714-0.799,1.264-1.139,1.649
			c-0.93,1.065-1.809,1.598-2.636,1.598s-1.422-0.249-1.784-0.748c-0.363-0.498-0.544-1.054-0.544-1.666s0.146-1.28,0.441-2.006
			l2.176-5.542c0.046-0.136,0.068-0.317,0.068-0.544s-0.136-0.521-0.408-0.884l1.87-0.034c0.521,0,0.827,0.097,0.918,0.289
			s0.022,0.493-0.204,0.9l-2.72,6.358c-0.386,0.839-0.578,1.553-0.578,2.142C302.551,115.641,302.903,115.969,303.605,115.969z
			 M306.937,103.492c-0.317,0.271-0.669,0.407-1.054,0.407c-0.386,0-0.691-0.136-0.918-0.407c-0.227-0.272-0.317-0.601-0.272-0.986
			c0.068-0.385,0.261-0.714,0.578-0.986c0.317-0.271,0.669-0.408,1.055-0.408c0.385,0,0.696,0.137,0.935,0.408
			c0.238,0.272,0.323,0.602,0.255,0.986C307.448,102.891,307.254,103.219,306.937,103.492z"/>
		<path d="M307.345,113.998c0-1.882,0.906-5.032,2.72-9.452h-1.768c-0.113,0-0.188-0.062-0.221-0.188
			c-0.034-0.124-0.023-0.249,0.033-0.374c0.057-0.124,0.142-0.187,0.256-0.187h2.04c0.815-1.79,1.575-3.286,2.277-4.488
			c0.702-1.201,1.349-2.011,1.938-2.431c0.589-0.419,1.014-0.629,1.274-0.629s0.447,0.022,0.562,0.067
			c0.521,0.25,0.782,0.766,0.782,1.548c0,0.781-0.262,1.729-0.782,2.839c-0.521,1.11-1.032,2.142-1.53,3.094h1.632
			c0.113,0,0.188,0.062,0.222,0.187c0.033,0.125,0.021,0.25-0.034,0.374c-0.057,0.125-0.143,0.188-0.255,0.188h-1.973
			c-1.246,2.107-2.754,3.978-4.521,5.61l-0.782,3.468c-0.068,0.295-0.102,0.584-0.102,0.867s0.079,0.572,0.237,0.866
			c0.158,0.295,0.408,0.442,0.748,0.442c0.386,0,0.816-0.136,1.292-0.408c1.088-0.815,2.289-2.527,3.604-5.134
			c0.09-0.204,0.198-0.328,0.322-0.374c0.125-0.045,0.198-0.017,0.222,0.085c0.022,0.102-0.012,0.267-0.103,0.493
			c-0.748,1.563-1.337,2.675-1.768,3.332c-1.224,1.972-2.527,2.958-3.91,2.958c-0.703,0-1.281-0.261-1.734-0.782
			S307.345,114.791,307.345,113.998z M313.738,104.545h-1.599c-0.271,0.635-0.884,2.142-1.836,4.521
			C311.527,107.798,312.671,106.291,313.738,104.545z M314.179,103.797c1.496-2.675,2.244-4.533,2.244-5.576
			c0-0.453-0.08-0.68-0.238-0.68c-0.249,0-0.629,0.362-1.139,1.088s-1.366,2.448-2.567,5.168H314.179z"/>
		<path d="M323.597,110.274c-0.748,1.44-1.196,2.517-1.343,3.23c-0.148,0.714-0.222,1.292-0.222,1.734
			c0,0.441,0.171,0.662,0.511,0.662c0.43,0,0.963-0.396,1.598-1.189c0.929-1.156,1.848-2.663,2.754-4.522
			c0.091-0.204,0.192-0.316,0.306-0.34c0.182-0.067,0.272,0,0.272,0.204c0,0.113-0.034,0.25-0.102,0.408
			c-2.086,4.216-3.843,6.324-5.271,6.324c-0.657,0-1.19-0.317-1.598-0.952c-0.204-0.34-0.307-0.793-0.307-1.36
			c0-0.566,0.113-1.258,0.341-2.074c-1.814,2.925-3.378,4.387-4.692,4.387c-0.363,0-0.691-0.113-0.986-0.341
			c-0.68-0.476-1.02-1.292-1.02-2.447c0-2.222,0.963-4.477,2.89-6.767c1.088-1.269,2.425-2.096,4.012-2.481
			c0.431-0.113,0.839-0.17,1.225-0.17c1.042,0,1.926,0.362,2.651,1.088c0.227,0.249,0.295,0.487,0.204,0.714
			s-0.283,0.317-0.578,0.271c-0.249-0.815-0.793-1.224-1.632-1.224c-0.975,0-2.176,0.771-3.604,2.312
			c-0.816,0.906-1.576,1.972-2.278,3.195c-0.884,1.474-1.326,2.652-1.326,3.536s0.283,1.326,0.851,1.326
			c1.359,0,3.139-2.085,5.338-6.256c0.43-0.839,0.793-1.411,1.088-1.717c0.294-0.307,0.668-0.459,1.122-0.459
			c0.09,0,0.323,0.033,0.697,0.102s0.651,0.08,0.833,0.034C324.923,107.912,324.345,108.835,323.597,110.274z"/>
		<path d="M352.428,119.981c-0.204,0-0.408-0.022-0.612-0.067c-1.088-0.204-1.632-1.168-1.632-2.891
			c0-2.788,1.405-7.536,4.216-14.246c1.088-2.538,1.893-5.009,2.414-7.411c0.204-0.93,0.307-1.672,0.307-2.228
			c0-0.555-0.023-0.991-0.068-1.309c-0.113-0.997-0.487-1.688-1.122-2.074c-1.134-0.612-2.402-0.918-3.808-0.918
			c-1.474,0-3.026,0.362-4.658,1.088s-3.168,1.609-4.607,2.652s-2.748,2.283-3.927,3.723s-2.057,2.947-2.635,4.522
			s-0.867,2.997-0.867,4.267c0,0.521,0.045,1.02,0.136,1.496c0.362,1.563,1.043,2.731,2.04,3.502s2.176,1.156,3.536,1.156
			c1.904,0,3.689-0.839,5.355-2.517c1.666-1.677,2.499-3.456,2.499-5.338c0-1.02-0.204-1.756-0.612-2.21
			c-0.408-0.453-0.828-0.68-1.258-0.68c-0.431,0-0.862,0.062-1.292,0.187c-0.432,0.125-0.646,0.114-0.646-0.034
			c0-0.146,0.261-0.34,0.782-0.577c0.521-0.238,1.065-0.357,1.632-0.357s1.088,0.17,1.564,0.51c0.884,0.681,1.325,1.712,1.325,3.094
			c0,1.384-0.526,2.771-1.58,4.165c-1.055,1.395-2.353,2.517-3.894,3.366c-1.542,0.851-3.065,1.275-4.573,1.275
			s-2.906-0.55-4.198-1.649c-1.292-1.099-2.154-2.578-2.584-4.437c-0.113-0.544-0.171-1.122-0.171-1.734
			c0-1.428,0.352-2.98,1.055-4.658c0.702-1.677,1.717-3.235,3.043-4.675s2.759-2.641,4.301-3.604
			c1.541-0.964,3.173-1.763,4.896-2.397c1.722-0.657,3.343-0.986,4.861-0.986s2.901,0.238,4.148,0.715
			c2.198,0.951,3.298,2.97,3.298,6.052c0,2.267-0.816,5.077-2.448,8.432c-1.02,2.086-1.927,4.33-2.72,6.732
			c-1.179,3.559-1.769,6.029-1.769,7.412c0,1.042,0.352,1.563,1.055,1.563c1.405,0,3.864-1.824,7.378-5.474
			c2.47-2.562,4.408-5.372,5.813-8.433c0.906-1.948,1.36-3.739,1.36-5.371c0-0.861-0.068-1.468-0.204-1.819s-0.227-0.578-0.271-0.68
			c-0.046-0.103-0.137-0.192-0.272-0.272c-0.136-0.079-0.227-0.119-0.271-0.119c-0.318-0.09-0.646-0.164-0.986-0.221
			s-0.539-0.209-0.595-0.459c-0.058-0.249,0.062-0.396,0.356-0.442l0.646,0.068c1.042,0.295,1.949,1.031,2.72,2.21
			c0.431,0.657,0.646,1.445,0.646,2.363s-0.215,2-0.646,3.247c-1.043,2.766-2.652,5.49-4.828,8.177
			c-2.176,2.686-4.324,4.743-6.443,6.171S353.765,119.981,352.428,119.981z"/>
		<path d="M370.346,111.481c-0.317,0.771-0.476,1.633-0.476,2.584c0,0.635,0.142,1.14,0.425,1.514s0.686,0.561,1.207,0.561
			c2.062,0,3.933-1.938,5.61-5.813c0.158-0.362,0.351-0.521,0.578-0.477c0.09,0.023,0.136,0.08,0.136,0.17
			c0,0.091-0.255,0.687-0.765,1.785c-0.511,1.1-1.026,1.989-1.548,2.669c-1.155,1.587-2.584,2.38-4.283,2.38
			c-0.907,0-1.678-0.294-2.312-0.884c-0.635-0.589-0.952-1.394-0.952-2.414c0-1.02,0.243-2.102,0.731-3.247
			c0.487-1.145,1.15-2.21,1.989-3.196c0.838-0.985,1.802-1.705,2.89-2.158c0.521-0.227,1.02-0.34,1.496-0.34
			c0.476,0,0.918,0.136,1.326,0.407c0.385,0.318,0.578,0.669,0.578,1.055c0,1.359-0.816,2.663-2.448,3.909
			c-0.499,0.386-1.202,0.731-2.108,1.037C371.514,111.329,370.823,111.481,370.346,111.481z M376.059,106.042
			c0-0.453-0.183-0.681-0.545-0.681c-0.635,0-1.598,0.782-2.89,2.347c-0.771,0.952-1.451,2.018-2.04,3.195
			c0.386,0,0.946-0.136,1.684-0.407c0.736-0.272,1.377-0.635,1.921-1.088C375.435,108.342,376.059,107.22,376.059,106.042z"/>
		<path d="M381.804,103.083c0,1.02-0.646,1.983-1.938,2.89c0.453,0.023,1.06,0.034,1.819,0.034c0.759,0,1.717-0.057,2.873-0.17
			c0.045,0.068,0.067,0.25,0.067,0.544c0,0.295-0.136,0.73-0.407,1.309c-0.272,0.578-0.517,1.077-0.731,1.496
			c-0.216,0.42-0.42,0.816-0.612,1.19s-0.407,0.833-0.646,1.377s-0.437,1.043-0.595,1.496c-0.567,1.723-0.477,2.584,0.271,2.584
			c0.952,0,2.357-1.893,4.216-5.678c0.158-0.295,0.289-0.408,0.392-0.341c0.102,0.068,0.152,0.153,0.152,0.255
			c0,0.103-0.147,0.454-0.441,1.055c-0.295,0.601-0.612,1.219-0.952,1.853c-0.34,0.635-0.873,1.372-1.598,2.21
			c-0.862,1.043-1.689,1.564-2.482,1.564c-0.884,0-1.496-0.532-1.836-1.599c-0.068-0.203-0.103-0.51-0.103-0.918
			c0-0.407,0.131-0.951,0.392-1.632c0.26-0.68,0.674-1.507,1.241-2.481c0.566-0.975,0.884-1.547,0.951-1.718
			c0.068-0.17,0.103-0.334,0.103-0.492c0-0.703-0.907-1.076-2.72-1.122l-0.408,1.088c-1.428,3.74-2.8,6.245-4.114,7.514
			c-0.227,0.204-0.34,0.136-0.34-0.204c0-0.067,0.022-0.146,0.068-0.237c1.269-1.678,2.368-3.661,3.298-5.95
			c0.929-2.289,1.575-4.466,1.938-6.528c0.137-0.702,0.453-1.054,0.952-1.054c0.498,0,0.861,0.317,1.088,0.952
			C381.77,102.574,381.804,102.811,381.804,103.083z"/>
		<path d="M393.228,114.746c0,0.726,0.294,1.088,0.884,1.088c1.065,0,2.481-1.779,4.25-5.338c0.068-0.137,0.13-0.272,0.187-0.408
			s0.147-0.227,0.272-0.272c0.124-0.045,0.209-0.017,0.255,0.085c0.045,0.103,0.022,0.267-0.068,0.493
			c-1.813,4.216-3.649,6.324-5.508,6.324c-0.611,0-1.1-0.272-1.462-0.816s-0.544-1.082-0.544-1.614s0.057-1.025,0.17-1.479
			c-1.314,2.176-2.448,3.412-3.399,3.706c-0.272,0.114-0.539,0.17-0.8,0.17s-0.516-0.034-0.765-0.102
			c-1.11-0.295-1.666-1.179-1.666-2.652c0-0.997,0.255-2.103,0.765-3.314c0.511-1.213,1.229-2.375,2.159-3.485
			s2.052-1.858,3.366-2.244c0.476-0.158,1.037-0.238,1.683-0.238c0.646,0,1.365,0.204,2.159,0.612
			c1.541-2.901,2.856-5.587,3.944-8.058c0.317-0.748,0.629-1.229,0.935-1.445c0.307-0.215,0.59-0.323,0.851-0.323
			c0.26,0,0.419,0,0.476,0s0.272,0.029,0.646,0.085c0.374,0.057,0.663,0.074,0.866,0.051c-0.521,0.477-1.903,2.788-4.147,6.937
			c-2.856,5.304-4.579,8.84-5.168,10.608C393.341,113.771,393.228,114.315,393.228,114.746z M394.894,105.803
			c-0.295-0.294-0.709-0.442-1.241-0.442c-0.533,0-1.275,0.397-2.228,1.19c-1.519,1.27-2.776,2.834-3.773,4.692
			c-0.658,1.224-0.986,2.232-0.986,3.025c0,0.363,0.073,0.692,0.222,0.986c0.146,0.295,0.379,0.442,0.696,0.442
			c0.771,0,1.723-0.794,2.856-2.381C391.573,111.731,393.058,109.226,394.894,105.803z"/>
		<path d="M400.027,111.481c-0.317,0.771-0.476,1.633-0.476,2.584c0,0.635,0.142,1.14,0.425,1.514s0.686,0.561,1.207,0.561
			c2.062,0,3.933-1.938,5.61-5.813c0.158-0.362,0.351-0.521,0.578-0.477c0.09,0.023,0.136,0.08,0.136,0.17
			c0,0.091-0.255,0.687-0.765,1.785c-0.511,1.1-1.026,1.989-1.548,2.669c-1.155,1.587-2.584,2.38-4.283,2.38
			c-0.907,0-1.678-0.294-2.312-0.884c-0.635-0.589-0.952-1.394-0.952-2.414c0-1.02,0.243-2.102,0.731-3.247
			c0.487-1.145,1.15-2.21,1.989-3.196c0.838-0.985,1.802-1.705,2.89-2.158c0.521-0.227,1.02-0.34,1.496-0.34
			c0.476,0,0.918,0.136,1.326,0.407c0.385,0.318,0.578,0.669,0.578,1.055c0,1.359-0.816,2.663-2.448,3.909
			c-0.499,0.386-1.202,0.731-2.108,1.037C401.195,111.329,400.503,111.481,400.027,111.481z M405.74,106.042
			c0-0.453-0.183-0.681-0.545-0.681c-0.635,0-1.598,0.782-2.89,2.347c-0.771,0.952-1.451,2.018-2.04,3.195
			c0.386,0,0.946-0.136,1.684-0.407c0.736-0.272,1.377-0.635,1.921-1.088C405.116,108.342,405.74,107.22,405.74,106.042z"/>
	</g>
</g>
</svg>
