<svg version="1.1" xmlns="http://www.w3.org/2000/svg" viewBox="0 0 40 30" fill="currentColor">
	<path fill="#000" opacity="0.3" d="M40,26c0,2.209-1.791,4-4,4H4c-2.209,0-4-1.791-4-4V6c0-2.209,1.791-4,4-4h32c2.209,0,4,1.791,4,4V26z"/>
	<path d="M40,24c0,2.209-1.791,4-4,4H4c-2.209,0-4-1.791-4-4V4c0-2.209,1.791-4,4-4h32c2.209,0,4,1.791,4,4V24z"/>
	<path fill="#000" opacity="0.9" d="M23.523,12.185c-1.938-2.146-5.108-2.146-7.046,0L1.05,25.229c-0.18,0.198-0.328,0.393-0.461,0.584
					C1.29,27.119,2.549,28,4,28h32c1.451,0,2.71-0.881,3.411-2.188c-0.134-0.19-0.281-0.385-0.461-0.584L23.523,12.185z"/>
	<path d="M23.523,14c-1.938-1.9-5.108-1.9-7.046,0L1.05,25.546c-0.18,0.177-0.328,0.349-0.461,0.517
					C1.29,27.221,2.549,28,4,28h32c1.451,0,2.71-0.779,3.411-1.936c-0.134-0.17-0.281-0.342-0.461-0.518L23.523,14z"/>
	<path fill="#000" opacity="0.9" d="M0.589,2.187C1.29,0.881,2.549,0,4,0h32c1.451,0,2.71,0.881,3.411,2.187
					c-0.134,0.191-0.281,0.385-0.461,0.585L23.523,15.814c-1.938,2.146-5.108,2.146-7.046,0L0.589,2.187z"/>
	<path d="M16.476,14c1.938,1.9,5.109,1.9,7.047,0L38.95,2.454c0.18-0.176,0.327-0.348,0.461-0.517
					C38.71,0.78,37.451,0,36,0H4C2.549,0,1.29,0.78,0.589,1.936C0.722,2.105,0.87,2.277,1.05,2.453L16.476,14z"/>
</svg>
