<svg version="1.1" xmlns="http://www.w3.org/2000/svg" viewBox="0 0 154 200">
<path opacity="0.3" d="M76.992,9.783C34.469,9.783,0,43.849,0,85.869C0,152.446,76.992,200,76.992,200
	s76.993-46.362,76.993-114.131C153.985,43.849,119.516,9.783,76.992,9.783z M76.992,118.479c-20.009,0-36.232-16.223-36.232-36.232
	c0-20.008,16.224-36.231,36.232-36.231c20.01,0,36.231,16.223,36.231,36.231C113.224,102.256,97.002,118.479,76.992,118.479z"/>
<path d="M76.992,0.725C34.469,0.725,0,34.791,0,76.812c0,66.577,76.992,114.13,76.992,114.13s76.993-46.361,76.993-114.13
	C153.985,34.791,119.516,0.725,76.992,0.725z M76.992,109.42c-20.009,0-36.232-16.221-36.232-36.231
	c0-20.009,16.224-36.232,36.232-36.232c20.01,0,36.231,16.223,36.231,36.232C113.224,93.199,97.002,109.42,76.992,109.42z"/>
</svg>
