<?xml version="1.0" encoding="utf-8"?>
<!-- Generator: Adobe Illustrator 16.0.0, SVG Export Plug-In . SVG Version: 6.00 Build 0)  -->
<!DOCTYPE svg PUBLIC "-//W3C//DTD SVG 1.1//EN" "http://www.w3.org/Graphics/SVG/1.1/DTD/svg11.dtd">
<svg version="1.1" id="Layer_1" xmlns="http://www.w3.org/2000/svg" xmlns:xlink="http://www.w3.org/1999/xlink" x="0px" y="0px"
	 width="71.436px" height="71.857px" viewBox="0 0 71.436 71.857" enable-background="new 0 0 71.436 71.857" xml:space="preserve">
<path fill="#FFFFFF" d="M62.435,60.059c0,1.545-13.752,2.797-30.716,2.797C14.753,62.855,1,61.604,1,60.059
	s2.381-27.065,30.718-27.065C60.054,32.994,62.435,58.514,62.435,60.059"/>
<path fill="none" stroke="#5A595A" stroke-width="2" stroke-miterlimit="10" d="M62.435,60.059c0,1.545-13.752,2.797-30.716,2.797
	C14.753,62.855,1,61.604,1,60.059s2.381-27.065,30.718-27.065C60.054,32.994,62.435,58.514,62.435,60.059z"/>
<path fill="#FFFFFF" d="M46.814,16.506c0,10.126-6.771,21.164-15.12,21.164c-8.351,0-15.121-11.038-15.121-21.164
	C16.574,6.38,23.344,1,31.695,1C40.044,1,46.814,6.38,46.814,16.506"/>
<path fill="none" stroke="#5A595A" stroke-width="2" stroke-miterlimit="10" d="M46.814,16.506c0,10.126-6.771,21.164-15.12,21.164
	c-8.351,0-15.121-11.038-15.121-21.164C16.574,6.38,23.344,1,31.695,1C40.044,1,46.814,6.38,46.814,16.506z"/>
<path fill="none" stroke="#5A595A" stroke-width="2" stroke-miterlimit="10" d="M23.981,34.353
	c-0.064,4.694-2.967,4.659-2.967,4.659"/>
<path fill="none" stroke="#5A595A" stroke-width="2" stroke-miterlimit="10" d="M39.407,34.353c0.064,4.694,2.968,4.659,2.968,4.659
	"/>
<path fill="#FFFFFF" d="M30.059,47.166c0,0-1.906,3.574-1.906,13.182"/>
<path fill="none" stroke="#801542" stroke-width="2" stroke-linejoin="round" stroke-miterlimit="10" d="M30.059,47.166
	c0,0-1.906,3.574-1.906,13.182"/>
<path fill="#FFFFFF" d="M33.33,47.166c0,0,1.906,3.574,1.906,13.182"/>
<path fill="none" stroke="#801542" stroke-width="2" stroke-linejoin="round" stroke-miterlimit="10" d="M33.33,47.166
	c0,0,1.906,3.574,1.906,13.182"/>
<path fill="none" stroke="#5A595A" stroke-width="2" stroke-miterlimit="10" d="M20.344,34.835
	c1.615,13.459,8.973,28.012,8.973,28.012"/>
<path fill="none" stroke="#5A595A" stroke-width="2" stroke-miterlimit="10" d="M43.046,34.835
	c-1.615,13.459-8.974,28.012-8.974,28.012"/>
<path fill="none" stroke="#5A595A" stroke-width="2" stroke-miterlimit="10" d="M22.841,38.092c0,0,1.049,1.906,3.843,3.961"/>
<path fill="none" stroke="#5A595A" stroke-width="2" stroke-miterlimit="10" d="M40.548,38.092c0,0-1.049,1.906-3.844,3.961"/>
<path fill="#FFFFFF" d="M36.746,42.242c0,0.85-2.262,6.535-5.052,6.535s-5.051-5.686-5.051-6.535s2.261-1.537,5.051-1.537
	S36.746,41.393,36.746,42.242"/>
<path fill="none" stroke="#801542" stroke-width="2" stroke-linejoin="round" stroke-miterlimit="10" d="M36.746,42.242
	c0,0.85-2.262,6.535-5.052,6.535s-5.051-5.686-5.051-6.535s2.261-1.537,5.051-1.537S36.746,41.393,36.746,42.242z"/>
<path fill="none" stroke="#5A595A" stroke-width="2" stroke-miterlimit="10" d="M8.535,41.742c0,0,0.746,10.328,1.188,20.268"/>
<path fill="none" stroke="#5A595A" stroke-width="2" stroke-miterlimit="10" d="M54.854,41.742c0,0-0.746,10.328-1.188,20.268"/>
<path fill="none" stroke="#8A8A8E" stroke-width="2" stroke-linecap="round" stroke-linejoin="round" stroke-miterlimit="10" stroke-dasharray="0.1,4" d="
	M52.882,6.486c1.15,2.75,1.813,5.834,1.908,9.17c0.012,0.173,0.018,0.344,0.018,0.514c0.005,0.108,0.007,0.22,0.007,0.335
	c0,4.475-0.981,9.081-2.803,13.324c2.479,1.373,4.755,3.031,6.803,4.961c1.437,0.82,2.591,2.073,3.291,3.571
	c8.099,10.107,8.33,21.582,8.33,21.697c0,8.463-9.403,9.32-16.271,9.945c-6.037,0.551-14.008,0.854-22.448,0.854
	c-0.828,0-1.646-0.004-2.46-0.01c-7.916-0.057-15.31-0.383-20.818-0.922c-1.221-0.121-2.527-0.248-3.842-0.432"/>
<path fill="none" stroke="#8A8A8E" stroke-width="2" stroke-linecap="round" stroke-linejoin="round" stroke-miterlimit="10" stroke-dasharray="0.1,4" d="
	M46.817,3.875c2.438,3.145,3.857,7.234,3.977,11.981c0.012,0.13,0.016,0.259,0.014,0.386c0.004,0.083,0.007,0.171,0.007,0.263
	c0,5.217-1.571,10.693-4.213,15.172c3.748,1.512,7.048,3.65,9.864,6.403c1.02,0.449,1.809,1.309,2.171,2.355
	c7.452,8.979,7.799,19.516,7.799,19.623c0,4.811-6.138,5.369-12.634,5.963c-5.92,0.539-13.762,0.836-22.084,0.836
	c-0.818,0-1.627-0.004-2.431-0.01c-7.805-0.057-15.071-0.377-20.458-0.904c-1.508-0.148-3.996-0.293-5.38-0.5"/>
</svg>
