<svg version="1.1" xmlns="http://www.w3.org/2000/svg" viewBox="0 0 32 34">
	<path opacity="0.3" d="M12.973,9.343c-0.417-4.794-5.418-7.146-5.63-7.242C7.144,2.007,6.922,1.979,6.708,2.016
				C0.934,2.974,0.066,6.334,0.031,6.474C-0.017,6.67-0.008,6.873,0.053,7.063c6.886,21.367,21.198,25.328,25.903,26.63
				c0.361,0.1,0.66,0.181,0.888,0.255C26.954,33.984,27.067,34,27.18,34c0.155,0,0.31-0.033,0.452-0.098
				c0.145-0.065,3.544-1.668,4.375-6.892c0.037-0.227,0-0.463-0.105-0.668c-0.074-0.144-1.853-3.528-6.783-4.724
				c-0.346-0.09-0.698,0.002-0.965,0.229c-1.556,1.329-3.705,2.745-4.631,2.892c-6.218-3.04-9.688-8.872-9.82-9.979
				c-0.076-0.622,1.348-2.806,2.987-4.582C12.897,9.954,13.002,9.649,12.973,9.343z"/>
	<path d="M12.973,7.343c-0.417-4.794-5.418-7.146-5.63-7.242C7.144,0.007,6.922-0.021,6.708,0.016
				C0.934,0.974,0.066,4.334,0.031,4.474C-0.017,4.67-0.008,4.873,0.053,5.063c6.886,21.367,21.198,25.328,25.903,26.63
				c0.361,0.1,0.66,0.181,0.888,0.255C26.954,31.984,27.067,32,27.18,32c0.155,0,0.31-0.033,0.452-0.098
				c0.145-0.065,3.544-1.668,4.375-6.892c0.037-0.227,0-0.463-0.105-0.668c-0.074-0.144-1.853-3.528-6.783-4.724
				c-0.346-0.09-0.698,0.002-0.965,0.229c-1.556,1.329-3.705,2.745-4.631,2.892c-6.218-3.04-9.688-8.872-9.82-9.979
				c-0.076-0.622,1.348-2.806,2.987-4.582C12.897,7.954,13.002,7.649,12.973,7.343z"/>
</svg>
