<?xml version="1.0" encoding="utf-8"?>
<!-- Generator: Adobe Illustrator 16.0.0, SVG Export Plug-In . SVG Version: 6.00 Build 0)  -->
<!DOCTYPE svg PUBLIC "-//W3C//DTD SVG 1.1//EN" "http://www.w3.org/Graphics/SVG/1.1/DTD/svg11.dtd">
<svg version="1.1" id="Layer_1" xmlns="http://www.w3.org/2000/svg" xmlns:xlink="http://www.w3.org/1999/xlink" x="0px" y="0px"
	 width="73.404px" height="82.565px" viewBox="0 0 73.404 82.565" enable-background="new 0 0 73.404 82.565" xml:space="preserve">
<path fill="#FFFFFF" d="M30.933,32.242L19.231,60.252c-0.152,0.362-0.57,0.533-0.932,0.383L1.438,53.591
	c-0.363-0.151-0.535-0.569-0.383-0.933l11.701-28.01c0.072-0.173,0.209-0.31,0.383-0.383l11.172-3.045
	c0.367-0.154,0.789,0.021,0.938,0.391l5.686,10.089C31.005,31.875,31.005,32.069,30.933,32.242"/>
<path fill="none" stroke="#801542" stroke-width="2" stroke-linecap="round" stroke-linejoin="round" stroke-miterlimit="10" d="
	M30.933,32.242L19.231,60.252c-0.152,0.362-0.57,0.533-0.932,0.383L1.438,53.591c-0.363-0.151-0.535-0.569-0.383-0.933l11.701-28.01
	c0.072-0.173,0.209-0.31,0.383-0.383l11.172-3.045c0.367-0.154,0.789,0.021,0.938,0.391l5.686,10.089
	C31.005,31.875,31.005,32.069,30.933,32.242z"/>
<path fill="none" stroke="#8A8A8E" stroke-width="2" stroke-linecap="round" stroke-linejoin="round" stroke-miterlimit="10" stroke-dasharray="0.1,4" d="
	M44.323,9.208l5.23,1.6c2.205,0.988,3.896,2.765,4.775,5.004l17.445,44.741c0.887,2.27,0.836,4.75-0.145,6.984
	c-0.979,2.23-2.77,3.948-5.037,4.833l-23.561,9.194"/>
<path fill="none" stroke="#8A8A8E" stroke-width="2" stroke-linecap="round" stroke-linejoin="round" stroke-miterlimit="10" stroke-dasharray="0.1,4" d="
	M39.179,11.817l8.51,2.539l0.238,0.106c1.234,0.554,2.186,1.552,2.68,2.811l17.441,44.733c0.498,1.274,0.469,2.67-0.082,3.925
	c-0.549,1.252-1.555,2.216-2.83,2.714L38.212,79.144"/>
<path fill="#FFFFFF" d="M46.882,18.734l17.439,44.726c0.227,0.58-0.061,1.234-0.641,1.46L36.759,75.417
	c-0.58,0.227-1.234-0.061-1.459-0.641L17.858,30.051c-0.107-0.276-0.102-0.584,0.016-0.856l9.373-15.735
	c0.248-0.578,0.922-0.84,1.494-0.584l17.551,5.238C46.562,18.235,46.774,18.458,46.882,18.734"/>
<path fill="none" stroke="#5A595A" stroke-width="2" stroke-miterlimit="10" d="M46.882,18.734l17.439,44.726
	c0.227,0.58-0.061,1.234-0.641,1.46L36.759,75.417c-0.58,0.227-1.234-0.061-1.459-0.641L17.858,30.051
	c-0.107-0.276-0.102-0.584,0.016-0.856l9.373-15.735c0.248-0.578,0.922-0.84,1.494-0.584l17.551,5.238
	C46.562,18.235,46.774,18.458,46.882,18.734z"/>
<path fill="#FFFFFF" d="M35.604,24.101c0.627,1.605-0.168,3.413-1.773,4.039c-1.604,0.625-3.412-0.168-4.037-1.772
	c-0.627-1.605,0.168-3.413,1.771-4.039C33.171,21.704,34.979,22.497,35.604,24.101"/>
<circle fill="none" stroke="#5A595A" stroke-width="2" stroke-miterlimit="10" cx="32.699" cy="25.234" r="3.118"/>
<path fill="none" stroke="#5A595A" stroke-width="2" stroke-miterlimit="10" d="M34.997,22.979
	c-0.424,0.752-0.994,1.295-1.703,1.572c-3.068,1.196-7.594-3.061-10.107-9.508C20.671,8.595,21.12,2.398,24.19,1.202
	c3.068-1.197,7.594,3.06,10.107,9.508c0.541,1.39,0.945,2.767,1.215,4.086"/>
<path fill="none" stroke="#5A595A" stroke-width="2" stroke-miterlimit="10" d="M31.565,22.329c1.605-0.626,3.414,0.168,4.039,1.773
	c0.361,0.926,0.25,1.92-0.219,2.716"/>
<rect x="34.73" y="53.942" transform="matrix(0.9297 -0.3684 0.3684 0.9297 -19.0387 21.2447)" fill="#FFFFFF" width="22.772" height="13.077"/>
<line fill="none" stroke="#801542" stroke-width="2" stroke-linecap="round" stroke-linejoin="round" stroke-miterlimit="10" x1="35.833" y1="49.522" x2="41.228" y2="33.984"/>
<rect x="34.73" y="53.942" transform="matrix(0.9297 -0.3684 0.3684 0.9297 -19.0387 21.2447)" fill="none" stroke="#5A595A" stroke-width="2" stroke-linecap="round" stroke-linejoin="round" stroke-miterlimit="10" width="22.772" height="13.077"/>
<circle fill="none" stroke="#801542" stroke-width="2" stroke-linecap="round" stroke-miterlimit="10" cx="44.059" cy="44.605" r="2.904"/>
<circle fill="none" stroke="#801542" stroke-width="2" stroke-linecap="round" stroke-miterlimit="10" cx="33.008" cy="38.701" r="2.904"/>
</svg>
