<svg version="1.1" xmlns="http://www.w3.org/2000/svg" viewBox="0 0 60 60">
<path d="M21.83,28.777c-1.405,0-2.553,1.159-2.553,2.584c0,1.432,1.147,2.592,2.553,2.59c1.404,0,2.545-1.16,2.545-2.59
	C24.375,29.938,23.233,28.777,21.83,28.777z M21.826,32.693c-0.724,0-1.31-0.6-1.31-1.332s0.585-1.324,1.31-1.324
	c0.721-0.001,1.307,0.591,1.307,1.324S22.547,32.693,21.826,32.693z M29.999,3.417c-14.681,0-26.582,11.901-26.582,26.584
	c0,14.681,11.901,26.583,26.582,26.583c14.682,0,26.584-11.902,26.584-26.583C56.583,15.318,44.681,3.417,29.999,3.417z
	 M45.009,28.697c1.504,4.127-0.586,8.737-4.66,10.264c-1.971,0.74-4.113,0.654-6.025-0.238c-1.148-0.541-2.129-1.336-2.889-2.316
	l-1.69,2.568l-1.676-2.547c-1.444,1.824-3.657,2.998-6.14,2.998c-4.342,0-7.874-3.586-7.874-7.988c0-1.765,0.569-3.39,1.528-4.711
	c-0.375-1.592-1.533-3.179-1.533-3.179l4.927-0.003c2.931-1.945,6.648-2.994,10.764-2.994c3.967,0,7.545,1.023,10.493,2.956
	l5.258,0.003c0,0-1.174,1.605-1.543,3.208C44.382,27.311,44.743,27.97,45.009,28.697z M21.926,25.061
	c-3.465,0-6.287,2.859-6.287,6.379c0,3.51,2.82,6.375,6.287,6.375c2.162,0,4.074-1.115,5.205-2.807
	c0.572-0.855,0.913-1.867,1.019-2.945c0.021-0.207,0.062-0.41,0.062-0.623C28.212,27.919,25.392,25.061,21.926,25.061z
	 M21.827,35.309c-2.146,0-3.892-1.77-3.892-3.947c0-2.173,1.746-3.941,3.892-3.941c2.14,0,3.886,1.769,3.886,3.941
	C25.713,33.539,23.968,35.309,21.827,35.309z M37.606,28.777c-1.406,0-2.551,1.159-2.551,2.584c0,1.432,1.143,2.592,2.551,2.59
	c1.404,0,2.543-1.16,2.543-2.59C40.149,29.938,39.011,28.777,37.606,28.777z M37.604,32.693c-0.727,0-1.309-0.6-1.309-1.332
	s0.582-1.324,1.309-1.324c0.723-0.001,1.307,0.591,1.307,1.324S38.327,32.693,37.604,32.693z M43.519,29.257
	c-1.201-3.299-4.822-4.992-8.074-3.775c-1.574,0.59-2.83,1.769-3.533,3.315c-0.471,1.036-0.629,2.157-0.523,3.265
	c0.051,0.543,0.146,1.086,0.338,1.611c0.168,0.465,0.396,0.891,0.656,1.289c0.639,0.99,1.525,1.787,2.607,2.295
	c1.525,0.715,3.232,0.781,4.809,0.193C43.05,36.229,44.718,32.557,43.519,29.257z M37.604,35.309c-2.146,0-3.891-1.77-3.891-3.947
	c0-2.173,1.744-3.941,3.891-3.941c2.141,0,3.883,1.769,3.883,3.941C41.487,33.539,39.745,35.309,37.604,35.309z M30.467,28.122
	c-0.398,0.879-0.623,1.808-0.694,2.745c-0.288-4.086-3.607-7.331-7.689-7.415c2.254-0.977,4.846-1.508,7.655-1.508
	c2.83,0,5.384,0.519,7.64,1.545c-0.828,0.023-1.666,0.173-2.486,0.478C32.921,24.707,31.347,26.181,30.467,28.122z"/>
</svg>
