<svg xmlns="http://www.w3.org/2000/svg"><defs><filter id="infinity-a" x="-200%" y="-40%" width="400%" height="200%"><feOffset in="SourceAlpha" dx="25" dy="12"/><feGaussianBlur result="blurOut" in="offOut" stdDeviation=".51"/><feComponentTransfer><feFuncA type="linear" slope=".05"/></feComponentTransfer><feMerge><feMergeNode/><feMergeNode in="SourceGraphic"/></feMerge></filter></defs><symbol id="calendar" viewBox="0 0 66.525 67.524"><path fill="#FFF" d="M56.525 58.524H2a1 1 0 0 1-1-1V7a1 1 0 0 1 1-1h54.525a1 1 0 0 1 1 1v50.524c0 .552-.449 1-1 1"/><path fill="none" stroke="#5A595A" stroke-width="2" stroke-miterlimit="10" d="M56.525 58.524H2a1 1 0 0 1-1-1V7a1 1 0 0 1 1-1h54.525a1 1 0 0 1 1 1v50.524c0 .552-.449 1-1 1zM1 18.808h56.523"/><circle fill="none" stroke="#5A595A" stroke-width="2" stroke-miterlimit="10" cx="11.632" cy="31.762" r="3.125"/><circle fill="none" stroke="#5A595A" stroke-width="2" stroke-miterlimit="10" cx="29.262" cy="31.762" r="3.125"/><circle fill="none" stroke="#5A595A" stroke-width="2" stroke-miterlimit="10" cx="11.632" cy="45.762" r="3.125"/><circle fill="none" stroke="#5A595A" stroke-width="2" stroke-miterlimit="10" cx="29.262" cy="45.762" r="3.125"/><circle fill="none" stroke="#5A595A" stroke-width="2" stroke-miterlimit="10" cx="46.892" cy="45.762" r="3.125"/><path fill="none" stroke="#801542" stroke-width="2" stroke-miterlimit="10" d="M49.382 1h4.143M15.882 1H43.07M5 1h3.882"/><path fill="none" stroke="#5A595A" stroke-width="2" stroke-miterlimit="10" d="M12.34 7.999v-7M46.185 7.999v-7"/><path fill="none" stroke="#8A8A8E" stroke-width="2" stroke-linecap="round" stroke-linejoin="round" stroke-miterlimit="10" stroke-dasharray="0.1,4" d="M65.525 12v45.524c0 4.963-4.037 9-9 9H6"/><path fill="none" stroke="#8A8A8E" stroke-width="2" stroke-linecap="round" stroke-linejoin="round" stroke-miterlimit="10" stroke-dasharray="0.1,4" d="M61.525 10v47.524c0 2.757-2.244 5-5 5H4"/><path fill="#FFF" d="M51.517 31.762a4.625 4.625 0 1 1-9.25 0 4.625 4.625 0 0 1 9.25 0"/><circle fill="none" stroke="#801542" stroke-width="2" stroke-miterlimit="10" cx="46.892" cy="31.762" r="4.625"/><path fill="#FFF" d="M48.46 31.762a1.567 1.567 0 1 1-3.135 0 1.567 1.567 0 0 1 3.135 0"/><circle fill="none" stroke="#801542" stroke-width="2" stroke-miterlimit="10" cx="46.893" cy="31.762" r="1.567"/></symbol><symbol id="cards" viewBox="0 0 80.678 62.117"><path fill="#FFF" d="M1.223 6.908l2.883 39.204A1.178 1.178 0 0 0 5.369 47.2l57.202-4.207a1.18 1.18 0 0 0 1.09-1.262L60.775 2.528a1.177 1.177 0 0 0-1.262-1.089L2.312 5.646a1.178 1.178 0 0 0-1.089 1.262"/><path fill="none" stroke="#5A595A" stroke-width="2" stroke-miterlimit="10" d="M1.223 6.908l2.883 39.204A1.178 1.178 0 0 0 5.369 47.2l57.202-4.207a1.18 1.18 0 0 0 1.09-1.262L60.775 2.528a1.177 1.177 0 0 0-1.262-1.089L2.312 5.646a1.178 1.178 0 0 0-1.089 1.262z"/><path fill="#FFF" d="M11.384 12.265v39.31c0 .65.528 1.178 1.179 1.178h57.356c.651 0 1.179-.527 1.179-1.178v-39.31c0-.651-.527-1.179-1.179-1.179H12.562c-.65 0-1.178.528-1.178 1.179"/><path fill="#FFF" d="M11.383 18.357h59.714v8.113H11.383z"/><path fill="none" stroke="#801542" stroke-width="2" stroke-miterlimit="10" d="M11.383 18.357h59.714v8.113H11.383z"/><path fill="none" stroke="#8A8A8E" stroke-width="2" stroke-linecap="round" stroke-linejoin="round" stroke-miterlimit="10" stroke-dasharray="0.1,4" d="M79.898 23.265v28.307c0 5.504-4.477 9.98-9.979 9.98H19.163"/><path fill="none" stroke="#8A8A8E" stroke-width="2" stroke-linecap="round" stroke-linejoin="round" stroke-miterlimit="10" stroke-dasharray="0.1,4" d="M75.498 18.865v32.707a5.586 5.586 0 0 1-5.578 5.58H15.862"/><path fill="none" stroke="#5A595A" stroke-width="2" stroke-miterlimit="10" d="M11.384 12.265v39.31c0 .65.528 1.178 1.179 1.178h57.356c.651 0 1.179-.527 1.179-1.178v-39.31c0-.651-.527-1.179-1.179-1.179H12.562c-.65 0-1.178.528-1.178 1.179zM18.334 41.535h19.969M18.334 47.051h19.969"/><path fill="#FFF" d="M64.631 44.008a3.424 3.424 0 1 1-6.848 0 3.424 3.424 0 0 1 6.848 0"/><circle fill="none" stroke="#801542" stroke-width="2" stroke-miterlimit="10" cx="61.208" cy="44.008" r="3.423"/><path fill="#FFF" d="M58.916 44.008a3.424 3.424 0 1 1-6.848 0 3.424 3.424 0 0 1 6.848 0"/><circle fill="none" stroke="#5A595A" stroke-width="2" stroke-miterlimit="10" cx="55.493" cy="44.008" r="3.423"/></symbol><symbol id="chat" viewBox="0 0 88.274 64.901"><path fill="#FFF" d="M16.274 2.166C7.839 2.166 1 8.227 1 15.703c0 4.222 2.183 7.992 5.603 10.475l.47 3.016c.007.373.415.6.733.406l2.969-1.269c1.707.584 3.56.907 5.5.907 8.436 0 15.273-6.06 15.273-13.535 0-7.476-6.838-13.537-15.274-13.537"/><path fill="none" stroke="#801542" stroke-width="2" stroke-miterlimit="10" d="M16.274 2.166C7.839 2.166 1 8.227 1 15.703c0 4.222 2.183 7.992 5.603 10.475l.47 3.016c.007.373.415.6.733.406l2.969-1.269c1.707.584 3.56.907 5.5.907 8.436 0 15.273-6.06 15.273-13.535 0-7.476-6.838-13.537-15.274-13.537z"/><path fill="none" stroke="#8A8A8E" stroke-width="2" stroke-linecap="round" stroke-linejoin="round" stroke-miterlimit="10" stroke-dasharray="0.1,4" d="M74.291 58.489c-1.629 3.207-4.981 5.412-8.729 5.412h-.007a9.81 9.81 0 0 1-4.216-.961l-2.662-1.139a42.333 42.333 0 0 1-10.255 1.252c-5.237 0-10.301-.932-15.001-2.732M84.538 14.548a32.617 32.617 0 0 1 2.736 13.07c0 9.546-4.221 18.679-11.644 25.31l-.358 2.297a9.588 9.588 0 0 1-.982 3.264"/><path fill="none" stroke="#8A8A8E" stroke-width="2" stroke-linecap="round" stroke-linejoin="round" stroke-miterlimit="10" stroke-dasharray="0.1,4" d="M77.502 11.006c3.396 4.806 5.364 10.506 5.364 16.612 0 8.843-4.109 17.136-11.34 23.017l-.627 4.016c-.266 2.705-2.575 4.842-5.338 4.842-.83 0-1.647-.193-2.389-.564l-4.167-1.783a37.783 37.783 0 0 1-10.584 1.5c-8.055 0-15.474-2.504-21.346-6.693"/><path fill="#FFF" d="M48.422 1C65.01 1 78.457 12.917 78.457 27.618c0 8.304-4.292 15.716-11.017 20.599l-.925 5.93a.952.952 0 0 1-1.444.799l-5.834-2.496a33.34 33.34 0 0 1-10.815 1.785c-16.588 0-30.035-11.916-30.035-26.617S31.834 1 48.422 1"/><path fill="none" stroke="#5A595A" stroke-width="2" stroke-miterlimit="10" d="M48.422 1C65.01 1 78.457 12.917 78.457 27.618c0 8.304-4.292 15.716-11.017 20.599l-.925 5.93a.952.952 0 0 1-1.444.799l-5.834-2.496a33.34 33.34 0 0 1-10.815 1.785c-16.588 0-30.035-11.916-30.035-26.617S31.834 1 48.422 1z"/><path fill="none" stroke="#801542" stroke-width="2" stroke-miterlimit="10" d="M61.36 20.003H34.093M61.36 28.119H34.093M61.36 36.081H34.093"/></symbol><symbol id="clock" viewBox="0 0 44 46"><path opacity=".3" d="M22 6c9.925 0 18 8.075 18 18s-8.075 18-18 18S4 33.925 4 24 12.075 6 22 6zm0-4C9.85 2 0 11.85 0 24s9.85 22 22 22 22-9.85 22-22S34.15 2 22 2z"/><path d="M22 4c9.925 0 18 8.075 18 18s-8.075 18-18 18S4 31.925 4 22 12.075 4 22 4m0-4C9.85 0 0 9.85 0 22s9.85 22 22 22 22-9.85 22-22S34.15 0 22 0z"/><path opacity=".3" d="M30 34a1.992 1.992 0 0 1-1.414-.586L20 24.829V16a2 2 0 0 1 4 0v7.171l7.414 7.415A2 2 0 0 1 30 34z"/><path d="M30 32a1.992 1.992 0 0 1-1.414-.586L20 22.829V14a2 2 0 0 1 4 0v7.171l7.414 7.415A2 2 0 0 1 30 32z"/></symbol><symbol id="facebook" viewBox="0 0 67 67"><path d="M28.765 50.32h6.744V33.998h4.499l.596-5.624h-5.095l.007-2.816c0-1.466.14-2.253 2.244-2.253h2.812V17.68h-4.5c-5.405 0-7.307 2.729-7.307 7.317v3.377h-3.369v5.625h3.369V50.32zM33 64C16.432 64 3 50.568 3 34 3 17.431 16.432 4 33 4s30 13.431 30 30c0 16.568-13.432 30-30 30z" fill-rule="evenodd" clip-rule="evenodd"/></symbol><symbol id="google" viewBox="0 0 67 67"><path d="M31.963 35.002c1.608-1.608 1.734-3.845 1.734-5.102 0-5.051-2.991-12.875-8.796-12.875-1.81 0-3.77.91-4.9 2.31-1.181 1.468-1.533 3.353-1.533 5.162 0 4.7 2.714 12.465 8.746 12.465 1.734 0 3.619-.855 4.749-1.96zM3 34a29.878 29.878 0 0 0 7.129 19.415c.839-1.41 2.14-2.797 4.066-3.937 4.348-2.664 10.204-3.017 13.37-3.218-.98-1.257-2.111-2.589-2.111-4.774 0-1.182.352-1.885.704-2.715-.779.075-1.533.151-2.237.151-7.414 0-11.611-5.529-11.611-10.983 0-3.217 1.483-6.791 4.473-9.377 3.996-3.284 8.746-3.845 12.516-3.845H43.7l-4.474 2.516h-4.322c1.607 1.329 4.951 4.127 4.951 9.449 0 5.178-2.941 7.615-5.856 9.927-.93.904-1.96 1.885-1.96 3.418 0 1.532 1.03 2.388 1.81 3.016l2.513 1.96c3.092 2.564 5.881 4.951 5.881 9.777 0 3.182-1.484 6.376-4.379 8.826a30.13 30.13 0 0 1-4.781.393c2.938-1.289 4.46-3.646 4.46-6.48 0-3.568-2.287-5.453-7.615-9.248-.553-.051-.905-.051-1.608-.051-.628 0-4.398.127-7.338 1.106-1.533.553-6.006 2.237-6.006 7.213 0 .541.058 1.065.17 1.569C7.775 52.645 3 43.88 3 34zm57.73-11.468zM33 64C16.432 64 3 50.568 3 34 3 17.431 16.432 4 33 4c12.507 0 23.227 7.653 27.73 18.532h-5.966v-7.814h-3.349v7.814h-7.814v3.281h7.814v7.882h3.349v-7.882h7.104A30.005 30.005 0 0 1 63 34c0 16.568-13.432 30-30 30z" fill-rule="evenodd" clip-rule="evenodd"/></symbol><symbol id="graphs" viewBox="0 0 81.721 81.72"><path fill="#FFF" d="M1 39.236h33.484V72.72H1z"/><path fill="none" stroke="#5A595A" stroke-width="2" stroke-linecap="round" stroke-linejoin="round" stroke-miterlimit="10" d="M1 39.236h33.484V72.72H1z"/><path fill="#FFF" d="M39.237 39.236h33.484V72.72H39.237z"/><path fill="none" stroke="#5A595A" stroke-width="2" stroke-linecap="round" stroke-linejoin="round" stroke-miterlimit="10" d="M39.237 39.236h33.484V72.72H39.237z"/><path fill="#FFF" d="M17.742 47.404a8.575 8.575 0 0 1 0 17.148 8.574 8.574 0 0 1-8.573-8.574"/><path fill="none" stroke="#801542" stroke-width="2" stroke-linecap="round" stroke-miterlimit="10" d="M17.742 47.404a8.575 8.575 0 0 1 0 17.148 8.574 8.574 0 0 1-8.573-8.574"/><path fill="#FFF" d="M17.742 57.986V53.97"/><path fill="none" stroke="#801542" stroke-width="2" stroke-linecap="round" stroke-miterlimit="10" d="M17.742 57.986V53.97"/><path fill="#FFF" d="M45.657 64.552h20.644"/><path fill="none" stroke="#5A595A" stroke-width="2" stroke-linecap="round" stroke-linejoin="round" stroke-miterlimit="10" d="M45.657 64.552h20.644"/><path fill="#FFF" d="M45.657 58.64l6.41-4.67 3.912 2.008 4 .643 6.322-5.893"/><path fill="none" stroke="#801542" stroke-width="2" stroke-linecap="round" stroke-miterlimit="10" d="M45.657 58.64l6.41-4.67 3.912 2.008 4 .643 6.322-5.893"/><path fill="#FFF" d="M1.001 1h71.72v33.136H1.001z"/><path fill="none" stroke="#5A595A" stroke-width="2" stroke-linecap="round" stroke-linejoin="round" stroke-miterlimit="10" d="M1.001 1h71.72v33.136H1.001z"/><path fill="#FFF" d="M11.963 9.316a2.904 2.904 0 1 1-5.808 0 2.904 2.904 0 0 1 5.808 0"/><circle fill="none" stroke="#801542" stroke-width="2" stroke-linecap="round" stroke-miterlimit="10" cx="9.059" cy="9.316" r="2.904"/><path fill="#FFF" d="M17.742 9.316h29.612"/><path fill="none" stroke="#5A595A" stroke-width="2" stroke-linecap="round" stroke-linejoin="round" stroke-miterlimit="10" d="M17.742 9.316h29.612"/><path fill="#FFF" d="M7.154 28.558h59.147"/><path fill="none" stroke="#5A595A" stroke-width="2" stroke-linecap="round" stroke-linejoin="round" stroke-miterlimit="10" d="M7.154 28.558h59.147"/><path fill="#FFF" d="M55.372 14.55h10.929"/><path fill="none" stroke="#5A595A" stroke-width="2" stroke-linecap="round" stroke-linejoin="round" stroke-miterlimit="10" d="M55.372 14.55h10.929"/><path fill="#FFF" d="M55.372 19.907h10.929"/><path fill="none" stroke="#5A595A" stroke-width="2" stroke-linecap="round" stroke-linejoin="round" stroke-miterlimit="10" d="M55.372 19.907h10.929"/><path fill="#FFF" d="M7.42 23.863l12.4-4.67 7.567 2.008 7.739.643 12.228-5.894"/><path fill="none" stroke="#801542" stroke-width="2" stroke-linecap="round" stroke-miterlimit="10" d="M7.42 23.863l12.4-4.67 7.567 2.008 7.739.643 12.228-5.894"/><path fill="none" stroke="#8A8A8E" stroke-width="2" stroke-linecap="round" stroke-linejoin="round" stroke-miterlimit="10" stroke-dasharray="0.1,4" d="M5.001 76.72h69.72a2 2 0 0 0 2-2V4"/><path fill="none" stroke="#8A8A8E" stroke-width="2" stroke-linecap="round" stroke-linejoin="round" stroke-miterlimit="10" stroke-dasharray="0.1,4" d="M9.001 80.72h65.72a6 6 0 0 0 6-6V8"/></symbol><symbol id="infinity" viewBox="0 0 520 160"><path fill="none" stroke="currentColor" stroke-linecap="round" stroke-linejoin="round" stroke-miterlimit="10" d="M205.402 104.541c-27.606 18.316-57.447 30.209-90.683 32.508-25.62 1.781-51.184-.877-72.833-16.299-21.167-15.074-34.032-49.501-4.936-74.28 17.229-14.673 37.465-21.941 59.44-25.171 32.922-4.846 62.906 4.317 91.207 20.066l97.305 63.426c27.605 18.316 56.762 29.959 89.998 32.258 25.619 1.781 51.184-.877 72.832-16.299 21.168-15.074 34.032-49.501 4.937-74.28-17.229-14.673-37.466-21.941-59.44-25.171-32.922-4.846-62.906 4.317-91.207 20.066l-96.62 63.176z" filter="url(#infinity-a)"/><path fill="none" stroke="currentColor" opacity=".1" stroke-linecap="round" stroke-linejoin="round" stroke-miterlimit="10" d="M205.402 104.541c-27.606 18.316-57.447 30.209-90.683 32.508-25.62 1.781-51.184-.877-72.833-16.299-21.167-15.074-34.032-49.501-4.936-74.28 17.229-14.673 37.465-21.941 59.44-25.171 32.922-4.846 62.906 4.317 91.207 20.066l97.305 63.426c27.605 18.316 56.762 29.959 89.998 32.258 25.619 1.781 51.184-.877 72.832-16.299 21.168-15.074 34.032-49.501 4.937-74.28-17.229-14.673-37.466-21.941-59.44-25.171-32.922-4.846-62.906 4.317-91.207 20.066l-96.62 63.176z"/></symbol><symbol id="instagram" viewBox="0 0 67 67"><path d="M42.271 26.578v-.006c.502 0 1.005.01 1.508-.002a1.224 1.224 0 0 0 1.172-1.217v-2.89c0-.691-.547-1.24-1.236-1.241h-2.883a1.234 1.234 0 0 0-1.236 1.243c-.001.955-.004 1.91.003 2.865a1.4 1.4 0 0 0 .073.426c.173.508.639.82 1.209.823l1.39-.001zM33 27.817a6.181 6.181 0 0 0-.142 12.361c3.454.074 6.248-2.686 6.321-6.043.075-3.46-2.717-6.32-6.179-6.318zm-11.954 3.299v13.627c0 .649.562 1.208 1.212 1.208h21.479c.656 0 1.215-.557 1.215-1.212V31.117H42.04a9.544 9.544 0 0 1 .376 4.014c-.161 1.363-.601 2.631-1.316 3.803s-1.644 2.145-2.779 2.918a9.482 9.482 0 0 1-9.946.428c-1.579-.885-2.819-2.12-3.685-3.713-1.289-2.373-1.495-4.865-.739-7.451h-2.905zm24.159 18.139c.159-.026.318-.049.475-.083 1.246-.265 2.264-1.304 2.508-2.557.025-.137.045-.273.067-.409V21.794c-.021-.133-.04-.268-.065-.401a3.301 3.301 0 0 0-2.78-2.618c-.058-.007-.113-.02-.17-.03H20.761c-.147.027-.296.047-.441.08a3.29 3.29 0 0 0-2.545 2.766c-.008.057-.02.114-.029.171V46.24c.028.154.05.311.085.465a3.302 3.302 0 0 0 2.77 2.52c.064.008.13.021.195.03h24.409zM33 64C16.432 64 3 50.569 3 34S16.432 4 33 4s30 13.431 30 30-13.432 30-30 30z" fill-rule="evenodd" clip-rule="evenodd"/></symbol><symbol id="linkedin" viewBox="0 0 67 67"><path d="M50.837 48.137V36.425c0-6.275-3.35-9.195-7.816-9.195-3.604 0-5.219 1.983-6.119 3.374V27.71h-6.79c.09 1.917 0 20.427 0 20.427h6.79V36.729c0-.609.044-1.219.224-1.655.49-1.22 1.607-2.483 3.482-2.483 2.458 0 3.44 1.873 3.44 4.618v10.929h6.789zM22.959 24.922c2.367 0 3.842-1.57 3.842-3.531-.044-2.003-1.475-3.528-3.797-3.528s-3.841 1.524-3.841 3.528c0 1.961 1.474 3.531 3.753 3.531h.043zM34 64C17.432 64 4 50.568 4 34 4 17.431 17.432 4 34 4s30 13.431 30 30c0 16.568-13.432 30-30 30zm-7.646-15.863V27.71h-6.789v20.427h6.789z" fill-rule="evenodd" clip-rule="evenodd"/></symbol><symbol id="logo" viewBox="0 0 427 127"><path d="M212.493 58.557c.93-.69 2.08-1.37 3.05-2.25 14.17-12.84 30.25-22.78 47.439-30.94 36.84-17.49 74.69-21.6 113.74-8 10.15 3.53 19.67 8.3 27.55 15.7 19.24 18.08 22.021 47.629 6.78 69.43-1.48 2.109-2.64 4.449-3.94 6.68.431.32.87.63 1.301.95 1.14-1.33 2.359-2.61 3.409-4.01 10.53-14.021 16.32-29.4 15.021-47.331-1.061-14.69-5.82-27.64-17.68-36.45-8.021-5.96-17.15-10.93-26.48-14.53-20.54-7.94-42.26-8.58-63.95-7.28-18.399 1.1-36.08 5.51-52.58 14.08-20.06 10.41-38.029 23.76-54.59 39.04-2.54 2.35-4.19 2.86-7.1.53-6.36-5.08-13.03-9.78-19.63-14.54-31.5-22.75-64.95-39.21-105.46-37.56-20.1.82-38.45 5.3-54.78 16.76-18.46 12.97-26.69 31.47-24.14 53.63 2.39 20.88 13.6 36.3 33.19 45.26 25.74 11.771 52.4 10.67 79.23 5.86 22.83-4.09 42.26-15.78 60.35-29.58 11.99-9.15 23.16-19.36 35.86-30.08 13.32 9.7 27.49 19.58 41.12 30.15 5.761 4.479 13.83 8.119 18.11 14.529.34-.319-.45-.8 0-1 .04-1.3.24-2.52.59-3.67m-98.88-15.498c-24.61 16.33-51.63 27.03-81.26 29.08-22.84 1.59-45.63-.78-64.93-14.53-18.87-13.439-30.34-44.129-4.4-66.22 15.36-13.08 33.4-19.56 52.99-22.44 29.35-4.32 56.08 3.85 81.31 17.89 15.82 8.8 31.12 18.55 46.63 27.89.81.49 1.45 1.23 3.26 2.8-11.43 8.751-22.04 17.86-33.6 25.53z" fill-rule="evenodd" clip-rule="evenodd"/><path d="M285.858 119.981c-.204 0-.408-.022-.612-.067-1.088-.204-1.632-1.168-1.632-2.891 0-2.788 1.405-7.536 4.216-14.246 1.088-2.538 1.893-5.009 2.414-7.411.204-.93.307-1.672.307-2.228 0-.555-.023-.991-.068-1.309-.113-.997-.487-1.688-1.122-2.074-1.134-.612-2.402-.918-3.808-.918-1.474 0-3.026.362-4.658 1.088s-3.168 1.609-4.607 2.652-2.748 2.283-3.927 3.723-2.057 2.947-2.635 4.522-.867 2.997-.867 4.267c0 .521.045 1.02.136 1.496.362 1.563 1.043 2.731 2.04 3.502s2.176 1.156 3.536 1.156c1.904 0 3.689-.839 5.355-2.517 1.666-1.677 2.499-3.456 2.499-5.338 0-1.02-.204-1.756-.612-2.21-.408-.453-.828-.68-1.258-.68a4.61 4.61 0 0 0-1.292.187c-.432.125-.646.114-.646-.034 0-.146.261-.34.782-.577.521-.238 1.065-.357 1.632-.357s1.088.17 1.564.51c.884.681 1.325 1.712 1.325 3.094 0 1.384-.526 2.771-1.58 4.165a12.22 12.22 0 0 1-3.894 3.366c-1.542.851-3.065 1.275-4.573 1.275s-2.906-.55-4.198-1.649c-1.292-1.099-2.154-2.578-2.584-4.437a8.512 8.512 0 0 1-.171-1.734c0-1.428.352-2.98 1.055-4.658.702-1.677 1.717-3.235 3.043-4.675s2.759-2.641 4.301-3.604a26.386 26.386 0 0 1 4.896-2.397c1.722-.657 3.343-.986 4.861-.986s2.901.238 4.148.715c2.198.951 3.298 2.97 3.298 6.052 0 2.267-.816 5.077-2.448 8.432a53.474 53.474 0 0 0-2.72 6.732c-1.179 3.559-1.769 6.029-1.769 7.412 0 1.042.352 1.563 1.055 1.563 1.405 0 3.864-1.824 7.378-5.474 2.47-2.562 4.408-5.372 5.813-8.433.906-1.948 1.36-3.739 1.36-5.371 0-.861-.068-1.468-.204-1.819s-.227-.578-.271-.68a.633.633 0 0 0-.272-.272c-.136-.079-.227-.119-.271-.119-.318-.09-.646-.164-.986-.221s-.539-.209-.595-.459c-.058-.249.062-.396.356-.442l.646.068c1.042.295 1.949 1.031 2.72 2.21.431.657.646 1.445.646 2.363s-.215 2-.646 3.247c-1.043 2.766-2.652 5.49-4.828 8.177-2.176 2.686-4.324 4.743-6.443 6.171s-3.848 2.142-5.185 2.142zM303.605 115.969c.431 0 .885-.215 1.36-.646.838-.839 1.904-2.551 3.196-5.135.158-.34.316-.441.476-.306.045.046.068.119.068.221 0 .103-.091.352-.272.748l-.493 1.071c-.147.317-.431.833-.85 1.547-.42.714-.799 1.264-1.139 1.649-.93 1.065-1.809 1.598-2.636 1.598s-1.422-.249-1.784-.748c-.363-.498-.544-1.054-.544-1.666s.146-1.28.441-2.006l2.176-5.542c.046-.136.068-.317.068-.544s-.136-.521-.408-.884l1.87-.034c.521 0 .827.097.918.289s.022.493-.204.9l-2.72 6.358c-.386.839-.578 1.553-.578 2.142.001.66.353.988 1.055.988zm3.332-12.477a1.586 1.586 0 0 1-1.054.407c-.386 0-.691-.136-.918-.407-.227-.272-.317-.601-.272-.986.068-.385.261-.714.578-.986a1.587 1.587 0 0 1 1.055-.408c.385 0 .696.137.935.408.238.272.323.602.255.986a1.656 1.656 0 0 1-.579.986z"/><path d="M307.345 113.998c0-1.882.906-5.032 2.72-9.452h-1.768c-.113 0-.188-.062-.221-.188a.541.541 0 0 1 .033-.374c.057-.124.142-.187.256-.187h2.04c.815-1.79 1.575-3.286 2.277-4.488.702-1.201 1.349-2.011 1.938-2.431.589-.419 1.014-.629 1.274-.629s.447.022.562.067c.521.25.782.766.782 1.548 0 .781-.262 1.729-.782 2.839a80.28 80.28 0 0 1-1.53 3.094h1.632c.113 0 .188.062.222.187a.552.552 0 0 1-.034.374c-.057.125-.143.188-.255.188h-1.973a24.72 24.72 0 0 1-4.521 5.61l-.782 3.468c-.068.295-.102.584-.102.867s.079.572.237.866c.158.295.408.442.748.442.386 0 .816-.136 1.292-.408 1.088-.815 2.289-2.527 3.604-5.134.09-.204.198-.328.322-.374.125-.045.198-.017.222.085.022.102-.012.267-.103.493-.748 1.563-1.337 2.675-1.768 3.332-1.224 1.972-2.527 2.958-3.91 2.958-.703 0-1.281-.261-1.734-.782s-.678-1.178-.678-1.971zm6.393-9.453h-1.599a288.37 288.37 0 0 0-1.836 4.521c1.224-1.268 2.368-2.775 3.435-4.521zm.441-.748c1.496-2.675 2.244-4.533 2.244-5.576 0-.453-.08-.68-.238-.68-.249 0-.629.362-1.139 1.088s-1.366 2.448-2.567 5.168h1.7z"/><path d="M323.597 110.274c-.748 1.44-1.196 2.517-1.343 3.23-.148.714-.222 1.292-.222 1.734 0 .441.171.662.511.662.43 0 .963-.396 1.598-1.189.929-1.156 1.848-2.663 2.754-4.522.091-.204.192-.316.306-.34.182-.067.272 0 .272.204 0 .113-.034.25-.102.408-2.086 4.216-3.843 6.324-5.271 6.324-.657 0-1.19-.317-1.598-.952-.204-.34-.307-.793-.307-1.36 0-.566.113-1.258.341-2.074-1.814 2.925-3.378 4.387-4.692 4.387a1.57 1.57 0 0 1-.986-.341c-.68-.476-1.02-1.292-1.02-2.447 0-2.222.963-4.477 2.89-6.767 1.088-1.269 2.425-2.096 4.012-2.481.431-.113.839-.17 1.225-.17 1.042 0 1.926.362 2.651 1.088.227.249.295.487.204.714s-.283.317-.578.271c-.249-.815-.793-1.224-1.632-1.224-.975 0-2.176.771-3.604 2.312-.816.906-1.576 1.972-2.278 3.195-.884 1.474-1.326 2.652-1.326 3.536s.283 1.326.851 1.326c1.359 0 3.139-2.085 5.338-6.256.43-.839.793-1.411 1.088-1.717.294-.307.668-.459 1.122-.459.09 0 .323.033.697.102s.651.08.833.034c-.408.41-.986 1.333-1.734 2.772zM352.428 119.981c-.204 0-.408-.022-.612-.067-1.088-.204-1.632-1.168-1.632-2.891 0-2.788 1.405-7.536 4.216-14.246 1.088-2.538 1.893-5.009 2.414-7.411.204-.93.307-1.672.307-2.228 0-.555-.023-.991-.068-1.309-.113-.997-.487-1.688-1.122-2.074-1.134-.612-2.402-.918-3.808-.918-1.474 0-3.026.362-4.658 1.088s-3.168 1.609-4.607 2.652-2.748 2.283-3.927 3.723-2.057 2.947-2.635 4.522-.867 2.997-.867 4.267c0 .521.045 1.02.136 1.496.362 1.563 1.043 2.731 2.04 3.502s2.176 1.156 3.536 1.156c1.904 0 3.689-.839 5.355-2.517 1.666-1.677 2.499-3.456 2.499-5.338 0-1.02-.204-1.756-.612-2.21-.408-.453-.828-.68-1.258-.68a4.61 4.61 0 0 0-1.292.187c-.432.125-.646.114-.646-.034 0-.146.261-.34.782-.577.521-.238 1.065-.357 1.632-.357s1.088.17 1.564.51c.884.681 1.325 1.712 1.325 3.094 0 1.384-.526 2.771-1.58 4.165a12.22 12.22 0 0 1-3.894 3.366c-1.542.851-3.065 1.275-4.573 1.275s-2.906-.55-4.198-1.649c-1.292-1.099-2.154-2.578-2.584-4.437a8.512 8.512 0 0 1-.171-1.734c0-1.428.352-2.98 1.055-4.658.702-1.677 1.717-3.235 3.043-4.675s2.759-2.641 4.301-3.604a26.386 26.386 0 0 1 4.896-2.397c1.722-.657 3.343-.986 4.861-.986s2.901.238 4.148.715c2.198.951 3.298 2.97 3.298 6.052 0 2.267-.816 5.077-2.448 8.432a53.474 53.474 0 0 0-2.72 6.732c-1.179 3.559-1.769 6.029-1.769 7.412 0 1.042.352 1.563 1.055 1.563 1.405 0 3.864-1.824 7.378-5.474 2.47-2.562 4.408-5.372 5.813-8.433.906-1.948 1.36-3.739 1.36-5.371 0-.861-.068-1.468-.204-1.819s-.227-.578-.271-.68a.633.633 0 0 0-.272-.272c-.136-.079-.227-.119-.271-.119-.318-.09-.646-.164-.986-.221s-.539-.209-.595-.459c-.058-.249.062-.396.356-.442l.646.068c1.042.295 1.949 1.031 2.72 2.21.431.657.646 1.445.646 2.363s-.215 2-.646 3.247c-1.043 2.766-2.652 5.49-4.828 8.177-2.176 2.686-4.324 4.743-6.443 6.171s-3.848 2.142-5.185 2.142zM370.346 111.481c-.317.771-.476 1.633-.476 2.584 0 .635.142 1.14.425 1.514s.686.561 1.207.561c2.062 0 3.933-1.938 5.61-5.813.158-.362.351-.521.578-.477.09.023.136.08.136.17 0 .091-.255.687-.765 1.785-.511 1.1-1.026 1.989-1.548 2.669-1.155 1.587-2.584 2.38-4.283 2.38-.907 0-1.678-.294-2.312-.884-.635-.589-.952-1.394-.952-2.414 0-1.02.243-2.102.731-3.247a12.408 12.408 0 0 1 1.989-3.196c.838-.985 1.802-1.705 2.89-2.158.521-.227 1.02-.34 1.496-.34s.918.136 1.326.407c.385.318.578.669.578 1.055 0 1.359-.816 2.663-2.448 3.909-.499.386-1.202.731-2.108 1.037-.906.306-1.597.458-2.074.458zm5.713-5.439c0-.453-.183-.681-.545-.681-.635 0-1.598.782-2.89 2.347a17.496 17.496 0 0 0-2.04 3.195c.386 0 .946-.136 1.684-.407a6.487 6.487 0 0 0 1.921-1.088c1.246-1.066 1.87-2.188 1.87-3.366z"/><path d="M381.804 103.083c0 1.02-.646 1.983-1.938 2.89.453.023 1.06.034 1.819.034.759 0 1.717-.057 2.873-.17.045.068.067.25.067.544 0 .295-.136.73-.407 1.309a51.932 51.932 0 0 1-.731 1.496l-.612 1.19c-.192.374-.407.833-.646 1.377s-.437 1.043-.595 1.496c-.567 1.723-.477 2.584.271 2.584.952 0 2.357-1.893 4.216-5.678.158-.295.289-.408.392-.341.102.068.152.153.152.255 0 .103-.147.454-.441 1.055a57.976 57.976 0 0 1-.952 1.853c-.34.635-.873 1.372-1.598 2.21-.862 1.043-1.689 1.564-2.482 1.564-.884 0-1.496-.532-1.836-1.599-.068-.203-.103-.51-.103-.918 0-.407.131-.951.392-1.632.26-.68.674-1.507 1.241-2.481.566-.975.884-1.547.951-1.718.068-.17.103-.334.103-.492 0-.703-.907-1.076-2.72-1.122l-.408 1.088c-1.428 3.74-2.8 6.245-4.114 7.514-.227.204-.34.136-.34-.204a.54.54 0 0 1 .068-.237c1.269-1.678 2.368-3.661 3.298-5.95.929-2.289 1.575-4.466 1.938-6.528.137-.702.453-1.054.952-1.054.498 0 .861.317 1.088.952.068.204.102.441.102.713z"/><path d="M393.228 114.746c0 .726.294 1.088.884 1.088 1.065 0 2.481-1.779 4.25-5.338.068-.137.13-.272.187-.408s.147-.227.272-.272c.124-.045.209-.017.255.085.045.103.022.267-.068.493-1.813 4.216-3.649 6.324-5.508 6.324-.611 0-1.1-.272-1.462-.816s-.544-1.082-.544-1.614.057-1.025.17-1.479c-1.314 2.176-2.448 3.412-3.399 3.706-.272.114-.539.17-.8.17s-.516-.034-.765-.102c-1.11-.295-1.666-1.179-1.666-2.652 0-.997.255-2.103.765-3.314.511-1.213 1.229-2.375 2.159-3.485s2.052-1.858 3.366-2.244c.476-.158 1.037-.238 1.683-.238.646 0 1.365.204 2.159.612 1.541-2.901 2.856-5.587 3.944-8.058.317-.748.629-1.229.935-1.445.307-.215.59-.323.851-.323h.476c.057 0 .272.029.646.085.374.057.663.074.866.051-.521.477-1.903 2.788-4.147 6.937-2.856 5.304-4.579 8.84-5.168 10.608-.228.654-.341 1.198-.341 1.629zm1.666-8.943c-.295-.294-.709-.442-1.241-.442-.533 0-1.275.397-2.228 1.19-1.519 1.27-2.776 2.834-3.773 4.692-.658 1.224-.986 2.232-.986 3.025 0 .363.073.692.222.986.146.295.379.442.696.442.771 0 1.723-.794 2.856-2.381 1.133-1.584 2.618-4.089 4.454-7.512z"/><path d="M400.027 111.481c-.317.771-.476 1.633-.476 2.584 0 .635.142 1.14.425 1.514s.686.561 1.207.561c2.062 0 3.933-1.938 5.61-5.813.158-.362.351-.521.578-.477.09.023.136.08.136.17 0 .091-.255.687-.765 1.785-.511 1.1-1.026 1.989-1.548 2.669-1.155 1.587-2.584 2.38-4.283 2.38-.907 0-1.678-.294-2.312-.884-.635-.589-.952-1.394-.952-2.414 0-1.02.243-2.102.731-3.247a12.408 12.408 0 0 1 1.989-3.196c.838-.985 1.802-1.705 2.89-2.158.521-.227 1.02-.34 1.496-.34s.918.136 1.326.407c.385.318.578.669.578 1.055 0 1.359-.816 2.663-2.448 3.909-.499.386-1.202.731-2.108 1.037-.906.306-1.598.458-2.074.458zm5.713-5.439c0-.453-.183-.681-.545-.681-.635 0-1.598.782-2.89 2.347a17.496 17.496 0 0 0-2.04 3.195c.386 0 .946-.136 1.684-.407a6.487 6.487 0 0 0 1.921-1.088c1.246-1.066 1.87-2.188 1.87-3.366z"/></symbol><symbol id="mail" viewBox="0 0 40 30"><path fill="#000" opacity=".3" d="M40 26a4 4 0 0 1-4 4H4a4 4 0 0 1-4-4V6a4 4 0 0 1 4-4h32a4 4 0 0 1 4 4v20z"/><path d="M40 24a4 4 0 0 1-4 4H4a4 4 0 0 1-4-4V4a4 4 0 0 1 4-4h32a4 4 0 0 1 4 4v20z"/><path fill="#000" opacity=".9" d="M23.523 12.185c-1.938-2.146-5.108-2.146-7.046 0L1.05 25.229c-.18.198-.328.393-.461.584C1.29 27.119 2.549 28 4 28h32c1.451 0 2.71-.881 3.411-2.188a6.042 6.042 0 0 0-.461-.584L23.523 12.185z"/><path d="M23.523 14c-1.938-1.9-5.108-1.9-7.046 0L1.05 25.546c-.18.177-.328.349-.461.517A3.981 3.981 0 0 0 4 28h32c1.451 0 2.71-.779 3.411-1.936a5.275 5.275 0 0 0-.461-.518L23.523 14z"/><path fill="#000" opacity=".9" d="M.589 2.187C1.29.881 2.549 0 4 0h32c1.451 0 2.71.881 3.411 2.187a6.049 6.049 0 0 1-.461.585L23.523 15.814c-1.938 2.146-5.108 2.146-7.046 0L.589 2.187z"/><path d="M16.476 14c1.938 1.9 5.109 1.9 7.047 0L38.95 2.454c.18-.176.327-.348.461-.517A3.984 3.984 0 0 0 36 0H4C2.549 0 1.29.78.589 1.936c.133.169.281.341.461.517L16.476 14z"/></symbol><symbol id="marker" viewBox="0 0 154 200"><path opacity=".3" d="M76.992 9.783C34.469 9.783 0 43.849 0 85.869 0 152.446 76.992 200 76.992 200s76.993-46.362 76.993-114.131c0-42.02-34.469-76.086-76.993-76.086zm0 108.696c-20.009 0-36.232-16.223-36.232-36.232 0-20.008 16.224-36.231 36.232-36.231 20.01 0 36.231 16.223 36.231 36.231.001 20.009-16.221 36.232-36.231 36.232z"/><path d="M76.992.725C34.469.725 0 34.791 0 76.812c0 66.577 76.992 114.13 76.992 114.13s76.993-46.361 76.993-114.13c0-42.021-34.469-76.087-76.993-76.087zm0 108.695c-20.009 0-36.232-16.221-36.232-36.231 0-20.009 16.224-36.232 36.232-36.232 20.01 0 36.231 16.223 36.231 36.232.001 20.01-16.221 36.231-36.231 36.231z"/></symbol><symbol id="person" viewBox="0 0 71.436 71.857"><path fill="#FFF" d="M62.435 60.059c0 1.545-13.752 2.797-30.716 2.797C14.753 62.855 1 61.604 1 60.059s2.381-27.065 30.718-27.065c28.336 0 30.717 25.52 30.717 27.065"/><path fill="none" stroke="#5A595A" stroke-width="2" stroke-miterlimit="10" d="M62.435 60.059c0 1.545-13.752 2.797-30.716 2.797C14.753 62.855 1 61.604 1 60.059s2.381-27.065 30.718-27.065c28.336 0 30.717 25.52 30.717 27.065z"/><path fill="#FFF" d="M46.814 16.506c0 10.126-6.771 21.164-15.12 21.164-8.351 0-15.121-11.038-15.121-21.164C16.574 6.38 23.344 1 31.695 1c8.349 0 15.119 5.38 15.119 15.506"/><path fill="none" stroke="#5A595A" stroke-width="2" stroke-miterlimit="10" d="M46.814 16.506c0 10.126-6.771 21.164-15.12 21.164-8.351 0-15.121-11.038-15.121-21.164C16.574 6.38 23.344 1 31.695 1c8.349 0 15.119 5.38 15.119 15.506zM23.981 34.353c-.064 4.694-2.967 4.659-2.967 4.659M39.407 34.353c.064 4.694 2.968 4.659 2.968 4.659"/><path fill="#FFF" d="M30.059 47.166s-1.906 3.574-1.906 13.182"/><path fill="none" stroke="#801542" stroke-width="2" stroke-linejoin="round" stroke-miterlimit="10" d="M30.059 47.166s-1.906 3.574-1.906 13.182"/><path fill="#FFF" d="M33.33 47.166s1.906 3.574 1.906 13.182"/><path fill="none" stroke="#801542" stroke-width="2" stroke-linejoin="round" stroke-miterlimit="10" d="M33.33 47.166s1.906 3.574 1.906 13.182"/><path fill="none" stroke="#5A595A" stroke-width="2" stroke-miterlimit="10" d="M20.344 34.835c1.615 13.459 8.973 28.012 8.973 28.012M43.046 34.835c-1.615 13.459-8.974 28.012-8.974 28.012M22.841 38.092s1.049 1.906 3.843 3.961M40.548 38.092s-1.049 1.906-3.844 3.961"/><path fill="#FFF" d="M36.746 42.242c0 .85-2.262 6.535-5.052 6.535s-5.051-5.686-5.051-6.535 2.261-1.537 5.051-1.537 5.052.688 5.052 1.537"/><path fill="none" stroke="#801542" stroke-width="2" stroke-linejoin="round" stroke-miterlimit="10" d="M36.746 42.242c0 .85-2.262 6.535-5.052 6.535s-5.051-5.686-5.051-6.535 2.261-1.537 5.051-1.537 5.052.688 5.052 1.537z"/><path fill="none" stroke="#5A595A" stroke-width="2" stroke-miterlimit="10" d="M8.535 41.742S9.281 52.07 9.723 62.01M54.854 41.742s-.746 10.328-1.188 20.268"/><path fill="none" stroke="#8A8A8E" stroke-width="2" stroke-linecap="round" stroke-linejoin="round" stroke-miterlimit="10" stroke-dasharray="0.1,4" d="M52.882 6.486c1.15 2.75 1.813 5.834 1.908 9.17.012.173.018.344.018.514.005.108.007.22.007.335 0 4.475-.981 9.081-2.803 13.324a33.699 33.699 0 0 1 6.803 4.961 8.037 8.037 0 0 1 3.291 3.571c8.099 10.107 8.33 21.582 8.33 21.697 0 8.463-9.403 9.32-16.271 9.945-6.037.551-14.008.854-22.448.854-.828 0-1.646-.004-2.46-.01-7.916-.057-15.31-.383-20.818-.922-1.221-.121-2.527-.248-3.842-.432"/><path fill="none" stroke="#8A8A8E" stroke-width="2" stroke-linecap="round" stroke-linejoin="round" stroke-miterlimit="10" stroke-dasharray="0.1,4" d="M46.817 3.875c2.438 3.145 3.857 7.234 3.977 11.981.012.13.016.259.014.386.004.083.007.171.007.263 0 5.217-1.571 10.693-4.213 15.172 3.748 1.512 7.048 3.65 9.864 6.403a4.016 4.016 0 0 1 2.171 2.355c7.452 8.979 7.799 19.516 7.799 19.623 0 4.811-6.138 5.369-12.634 5.963-5.92.539-13.762.836-22.084.836-.818 0-1.627-.004-2.431-.01-7.805-.057-15.071-.377-20.458-.904-1.508-.148-3.996-.293-5.38-.5"/></symbol><symbol id="phone" viewBox="0 0 32 34"><path opacity=".3" d="M12.973 9.343c-.417-4.794-5.418-7.146-5.63-7.242a1.063 1.063 0 0 0-.635-.085C.934 2.974.066 6.334.031 6.474c-.048.196-.039.399.022.589 6.886 21.367 21.198 25.328 25.903 26.63.361.1.66.181.888.255a1.088 1.088 0 0 0 .788-.046c.145-.065 3.544-1.668 4.375-6.892.037-.227 0-.463-.105-.668-.074-.144-1.853-3.528-6.783-4.724a1.065 1.065 0 0 0-.965.229c-1.556 1.329-3.705 2.745-4.631 2.892-6.218-3.04-9.688-8.872-9.82-9.979-.076-.622 1.348-2.806 2.987-4.582.207-.224.312-.529.283-.835z"/><path d="M12.973 7.343C12.556 2.549 7.555.197 7.343.101a1.063 1.063 0 0 0-.635-.085C.934.974.066 4.334.031 4.474c-.048.196-.039.399.022.589 6.886 21.367 21.198 25.328 25.903 26.63.361.1.66.181.888.255a1.088 1.088 0 0 0 .788-.046c.145-.065 3.544-1.668 4.375-6.892.037-.227 0-.463-.105-.668-.074-.144-1.853-3.528-6.783-4.724a1.065 1.065 0 0 0-.965.229c-1.556 1.329-3.705 2.745-4.631 2.892-6.218-3.04-9.688-8.872-9.82-9.979-.076-.622 1.348-2.806 2.987-4.582.207-.224.312-.529.283-.835z"/></symbol><symbol id="tag" viewBox="0 0 73.404 82.565"><path fill="#FFF" d="M30.933 32.242l-11.702 28.01a.715.715 0 0 1-.932.383L1.438 53.591a.713.713 0 0 1-.383-.933l11.701-28.01a.711.711 0 0 1 .383-.383l11.172-3.045a.713.713 0 0 1 .938.391L30.935 31.7c.07.175.07.369-.002.542"/><path fill="none" stroke="#801542" stroke-width="2" stroke-linecap="round" stroke-linejoin="round" stroke-miterlimit="10" d="M30.933 32.242l-11.702 28.01a.715.715 0 0 1-.932.383L1.438 53.591a.713.713 0 0 1-.383-.933l11.701-28.01a.711.711 0 0 1 .383-.383l11.172-3.045a.713.713 0 0 1 .938.391L30.935 31.7c.07.175.07.369-.002.542z"/><path fill="none" stroke="#8A8A8E" stroke-width="2" stroke-linecap="round" stroke-linejoin="round" stroke-miterlimit="10" stroke-dasharray="0.1,4" d="M44.323 9.208l5.23 1.6a9.09 9.09 0 0 1 4.775 5.004l17.445 44.741a9.056 9.056 0 0 1-.145 6.984 9.071 9.071 0 0 1-5.037 4.833L43.03 81.564"/><path fill="none" stroke="#8A8A8E" stroke-width="2" stroke-linecap="round" stroke-linejoin="round" stroke-miterlimit="10" stroke-dasharray="0.1,4" d="M39.179 11.817l8.51 2.539.238.106a5.111 5.111 0 0 1 2.68 2.811l17.441 44.733a5.093 5.093 0 0 1-.082 3.925 5.092 5.092 0 0 1-2.83 2.714L38.212 79.144"/><path fill="#FFF" d="M46.882 18.734L64.321 63.46a1.127 1.127 0 0 1-.641 1.46L36.759 75.417a1.125 1.125 0 0 1-1.459-.641L17.858 30.051a1.128 1.128 0 0 1 .016-.856l9.373-15.735c.248-.578.922-.84 1.494-.584l17.551 5.238c.27.121.482.344.59.62"/><path fill="none" stroke="#5A595A" stroke-width="2" stroke-miterlimit="10" d="M46.882 18.734L64.321 63.46a1.127 1.127 0 0 1-.641 1.46L36.759 75.417a1.125 1.125 0 0 1-1.459-.641L17.858 30.051a1.128 1.128 0 0 1 .016-.856l9.373-15.735c.248-.578.922-.84 1.494-.584l17.551 5.238c.27.121.482.344.59.62z"/><path fill="#FFF" d="M35.604 24.101a3.118 3.118 0 1 1-5.81 2.267 3.118 3.118 0 0 1 5.81-2.267"/><circle fill="none" stroke="#5A595A" stroke-width="2" stroke-miterlimit="10" cx="32.699" cy="25.234" r="3.118"/><path fill="none" stroke="#5A595A" stroke-width="2" stroke-miterlimit="10" d="M34.997 22.979c-.424.752-.994 1.295-1.703 1.572-3.068 1.196-7.594-3.061-10.107-9.508C20.671 8.595 21.12 2.398 24.19 1.202c3.068-1.197 7.594 3.06 10.107 9.508.541 1.39.945 2.767 1.215 4.086M31.565 22.329a3.119 3.119 0 0 1 3.82 4.489"/><path fill="#FFF" d="M33.122 58.6l21.171-8.39 4.818 12.159-21.171 8.389z"/><path fill="none" stroke="#801542" stroke-width="2" stroke-linecap="round" stroke-linejoin="round" stroke-miterlimit="10" d="M35.833 49.522l5.395-15.538"/><path fill="none" stroke="#5A595A" stroke-width="2.00006" stroke-linecap="round" stroke-linejoin="round" stroke-miterlimit="10" d="M33.122 58.6l21.171-8.39 4.818 12.159-21.171 8.389z"/><circle fill="none" stroke="#801542" stroke-width="2" stroke-linecap="round" stroke-miterlimit="10" cx="44.059" cy="44.605" r="2.904"/><circle fill="none" stroke="#801542" stroke-width="2" stroke-linecap="round" stroke-miterlimit="10" cx="33.008" cy="38.701" r="2.904"/></symbol><symbol id="tripadvisor" viewBox="0 0 60 60"><path d="M21.83 28.777c-1.405 0-2.553 1.159-2.553 2.584 0 1.432 1.147 2.592 2.553 2.59 1.404 0 2.545-1.16 2.545-2.59 0-1.423-1.142-2.584-2.545-2.584zm-.004 3.916c-.724 0-1.31-.6-1.31-1.332s.585-1.324 1.31-1.324c.721-.001 1.307.591 1.307 1.324s-.586 1.332-1.307 1.332zm8.173-29.276c-14.681 0-26.582 11.901-26.582 26.584 0 14.681 11.901 26.583 26.582 26.583 14.682 0 26.584-11.902 26.584-26.583 0-14.683-11.902-26.584-26.584-26.584zm15.01 25.28c1.504 4.127-.586 8.737-4.66 10.264a7.727 7.727 0 0 1-6.025-.238 7.919 7.919 0 0 1-2.889-2.316l-1.69 2.568-1.676-2.547c-1.444 1.824-3.657 2.998-6.14 2.998-4.342 0-7.874-3.586-7.874-7.988 0-1.765.569-3.39 1.528-4.711-.375-1.592-1.533-3.179-1.533-3.179l4.927-.003c2.931-1.945 6.648-2.994 10.764-2.994 3.967 0 7.545 1.023 10.493 2.956l5.258.003s-1.174 1.605-1.543 3.208a8.02 8.02 0 0 1 1.06 1.979zm-23.083-3.636c-3.465 0-6.287 2.859-6.287 6.379 0 3.51 2.82 6.375 6.287 6.375 2.162 0 4.074-1.115 5.205-2.807.572-.855.913-1.867 1.019-2.945.021-.207.062-.41.062-.623 0-3.521-2.82-6.379-6.286-6.379zm-.099 10.248c-2.146 0-3.892-1.77-3.892-3.947 0-2.173 1.746-3.941 3.892-3.941 2.14 0 3.886 1.769 3.886 3.941 0 2.177-1.745 3.947-3.886 3.947zm15.779-6.532c-1.406 0-2.551 1.159-2.551 2.584 0 1.432 1.143 2.592 2.551 2.59 1.404 0 2.543-1.16 2.543-2.59 0-1.423-1.138-2.584-2.543-2.584zm-.002 3.916c-.727 0-1.309-.6-1.309-1.332s.582-1.324 1.309-1.324c.723-.001 1.307.591 1.307 1.324s-.584 1.332-1.307 1.332zm5.915-3.436c-1.201-3.299-4.822-4.992-8.074-3.775a6.293 6.293 0 0 0-3.533 3.315 6.38 6.38 0 0 0-.523 3.265 6.4 6.4 0 0 0 .338 1.611c.168.465.396.891.656 1.289a6.266 6.266 0 0 0 2.607 2.295 6.166 6.166 0 0 0 4.809.193c3.251-1.221 4.919-4.893 3.72-8.193zm-5.915 6.052c-2.146 0-3.891-1.77-3.891-3.947 0-2.173 1.744-3.941 3.891-3.941 2.141 0 3.883 1.769 3.883 3.941 0 2.177-1.742 3.947-3.883 3.947zm-7.137-7.187a8.13 8.13 0 0 0-.694 2.745c-.288-4.086-3.607-7.331-7.689-7.415 2.254-.977 4.846-1.508 7.655-1.508 2.83 0 5.384.519 7.64 1.545a7.723 7.723 0 0 0-2.486.478 7.873 7.873 0 0 0-4.426 4.155z"/></symbol><symbol id="twitter" viewBox="0 0 67 67"><path d="M38.167 22.283c-2.619.953-4.274 3.411-4.086 6.101l.063 1.038-1.048-.127c-3.813-.487-7.145-2.139-9.974-4.915l-1.383-1.377-.356 1.017c-.754 2.267-.272 4.661 1.299 6.271.838.89.649 1.017-.796.487-.503-.169-.943-.296-.985-.233-.146.149.356 2.076.754 2.839.545 1.06 1.655 2.097 2.871 2.712l1.027.487-1.215.021c-1.173 0-1.215.021-1.089.467.419 1.377 2.074 2.839 3.918 3.475l1.299.444-1.131.678a11.751 11.751 0 0 1-5.616 1.567c-.944.021-1.719.106-1.719.17 0 .211 2.557 1.397 4.044 1.864 4.463 1.377 9.765.783 13.746-1.568 2.829-1.674 5.657-5 6.978-8.221.713-1.715 1.425-4.851 1.425-6.354 0-.975.063-1.102 1.236-2.267.692-.678 1.341-1.419 1.467-1.631.21-.403.188-.403-.88-.043-1.781.636-2.033.551-1.152-.402.649-.678 1.425-1.907 1.425-2.267 0-.063-.314.042-.671.233-.377.212-1.215.53-1.844.72l-1.131.361-1.027-.7c-.566-.381-1.361-.805-1.781-.932-1.069-.296-2.704-.254-3.668.085zM34 64C17.432 64 4 50.568 4 34 4 17.431 17.432 4 34 4s30 13.431 30 30c0 16.568-13.432 30-30 30z" fill-rule="evenodd" clip-rule="evenodd"/></symbol><symbol id="youtube" viewBox="0 0 67 67"><path d="M42.527 41.34c-.278 0-.478.078-.6.244-.121.156-.18.424-.18.796v.896h1.543v-.896c0-.372-.062-.64-.185-.796-.116-.166-.313-.244-.578-.244zm-6.018-.031c.234 0 .417.076.544.23.123.154.185.383.185.682v4.584c0 .286-.053.487-.153.611-.1.127-.256.189-.47.189a.975.975 0 0 1-.421-.096 1.497 1.497 0 0 1-.415-.313v-5.531c.119-.122.239-.213.36-.271a.83.83 0 0 1 .37-.085zm5.239 3.349v1.672c0 .468.057.792.17.974.118.181.313.269.592.269.289 0 .491-.076.606-.229.114-.153.175-.489.175-1.013v-.405h1.795v.456c0 .911-.217 1.596-.657 2.059-.435.459-1.089.687-1.958.687-.781 0-1.398-.242-1.847-.731-.448-.486-.676-1.157-.676-2.014v-3.986c0-.768.249-1.398.742-1.882.493-.485 1.128-.727 1.911-.727.799 0 1.413.225 1.843.674.429.448.642 1.093.642 1.935v2.264h-3.338zm-3.125 3.837c-.271.336-.669.501-1.187.501-.343 0-.646-.062-.912-.192a2.238 2.238 0 0 1-.746-.601v.681h-1.764V36.852h1.764v3.875a2.68 2.68 0 0 1 .748-.617c.267-.142.534-.211.805-.211.554 0 .975.189 1.265.565.294.379.438.933.438 1.66v4.926c0 .628-.137 1.109-.411 1.445zm-7.665.389v-.976c-.325.361-.658.636-1.009.822a2.098 2.098 0 0 1-1.014.282c-.405 0-.705-.129-.913-.396-.201-.266-.305-.658-.305-1.189v-7.422h1.744v6.809c0 .211.037.362.107.457.077.095.196.141.358.141.128 0 .292-.062.488-.188a2.48 2.48 0 0 0 .542-.475v-6.744H32.7v8.878h-1.742zM24.916 38.6v10.284h-1.968V38.6h-2.034v-1.748h6.036V38.6h-2.034zm8.078-5.622c0-.001 12.08.018 13.514 1.45 1.439 1.435 1.455 8.514 1.455 8.555 0 0-.012 7.117-1.455 8.556C45.074 52.969 32.994 53 32.994 53s-12.079-.031-13.516-1.462c-1.438-1.435-1.441-8.502-1.441-8.556 0-.041.004-7.12 1.441-8.555 1.438-1.431 13.516-1.45 13.516-1.449zm9.526-3.723h-1.966v-1.08c-.358.397-.736.703-1.13.909-.392.208-.771.312-1.14.312-.458 0-.797-.146-1.027-.437-.229-.291-.345-.727-.345-1.311v-8.172h1.962v7.497c0 .231.045.399.127.502.08.104.216.156.399.156.143 0 .327-.069.548-.206.22-.137.423-.312.605-.527v-7.422h1.966v9.779zm-10.673-1.667c.139.147.339.219.6.219.266 0 .476-.075.634-.223.157-.152.235-.358.235-.618v-5.327a.638.638 0 0 0-.241-.519c-.16-.131-.37-.196-.628-.196-.241 0-.435.065-.586.196a.665.665 0 0 0-.225.519v5.327c0 .267.072.473.211.622zm-1.439-7.685c.528-.449 1.241-.674 2.132-.674.812 0 1.48.237 2.001.711.517.473.777 1.083.777 1.828v5.051c0 .836-.255 1.491-.762 1.968-.513.476-1.212.714-2.106.714-.858 0-1.547-.246-2.064-.736-.513-.492-.772-1.153-.772-1.984v-5.068c-.001-.759.263-1.362.794-1.81zM24.262 16h-2.229l2.634 8.003v5.252h2.213v-5.5L29.454 16h-2.25l-1.366 5.298h-.139L24.262 16zM33 64C16.432 64 3 50.568 3 34 3 17.431 16.432 4 33 4s30 13.431 30 30c0 16.568-13.432 30-30 30z" fill-rule="evenodd" clip-rule="evenodd"/></symbol></svg>